<svg id="Object" xmlns="http://www.w3.org/2000/svg" viewBox="0 0 873.5 685.75"><defs><style>.cls-1{fill:#777;}.cls-17,.cls-2{fill:none;}.cls-3{fill:#464646;}.cls-12,.cls-4{fill:#fff;}.cls-4{stroke:#777;stroke-miterlimit:10;stroke-width:1.5px;}.cls-5{fill:#5d5d5d;}.cls-6{fill:#bd844d;}.cls-7{fill:#896140;}.cls-8{fill:#9f7044;}.cls-9{opacity:0.1;isolation:isolate;}.cls-10{fill:#262626;}.cls-11{fill:#e2e2e2;}.cls-13{fill:#ddd;}.cls-14{fill:#d1d1d1;}.cls-15{fill:#c4c3c2;}.cls-16{fill:#a3bf91;}.cls-17{stroke:#fff;stroke-linejoin:round;stroke-width:7px;}</style></defs><title>Octopus homepage</title><path class="cls-1" d="M906.1,253.5c-1.7-1.3-1.8-2-.4-3.6s2-3.3,1.1-5.3-2.4-2.8-4.4-3.1a3.6,3.6,0,0,1-2.1-1.3,17.53,17.53,0,0,0-7-4.9,15.35,15.35,0,0,0-11.9.2,12.58,12.58,0,0,0-4.1,19.9,8.54,8.54,0,0,0,11.4.8c4.8-3.7,4.2-14.5-3.2-13.8a5.35,5.35,0,0,0-4.2,2.6,4.57,4.57,0,0,0,.2,4.9,3.45,3.45,0,0,0,4.5.9,2.15,2.15,0,0,0,.9-1.2c.1-.9-.6-.8-.9-1.4-1.2-2.2,1.1-2.8,2.5-1.5,1.7,1.5,1.2,4.6-.3,6a5.5,5.5,0,0,1-7.3.3,7,7,0,0,1-2-9,7.9,7.9,0,0,1,7.9-4.4,10.73,10.73,0,0,1,6.3,3.3,8.76,8.76,0,0,1,2.2,4.4c1.7,8.9-4.4,17.5-12.3,20.5-2.9,1.1-5.2,0-7.8-1.5a41.86,41.86,0,0,1-9.2-7.6v-.1l-.1.1c-1.7-1.7-3.3-3.5-4.9-5.3-8.1-8.6-16-17.5-24.4-25.8-5.7-5.6-18.5-14.1-25.4-17.8,0,.1-.1.3-.1.4a18.13,18.13,0,0,0-4.8-2.9c-6.2-1.8-67.8-36.6-113.3-25.7l25,36.3c10.1.9,21.6-.5,30,2.2a4.6,4.6,0,0,1,4.5-3.6,4.67,4.67,0,0,1,4.6,4.7c2.2-2.3,3.4-.1,4,.7a4.61,4.61,0,0,1,4.1-2.7,4.67,4.67,0,0,1,4.6,4.7,2.28,2.28,0,0,1,3.6,1.1,4.67,4.67,0,0,1,3.9-2.2c2.6,0,4,2,4,4.7,0,.2-.2.9-.2,1.1,3-1.9,3.8.3,4.1,1a4.58,4.58,0,0,1,4-2.3c3.6,0,4.2,3.1,3.8,6.1.1-.8,2.5-.8,3-.6,1.1.4,1.2,1,1.5,2.1a5.31,5.31,0,0,1,3.5-1.7c2.6,0,4,2.1,4,4.7,0,.4-.5,1-.6,1.4,2.1-.7,3.2,1.2,3.4,2.2.8-.8,2.7-2.1,4-2.1a3.89,3.89,0,0,1,4.2,4.2,12.67,12.67,0,0,1-.6,1.8c3.3,0,2.8,1.2,2.8,2.4.2-.2,1.2-.6,1.4-.8-.1-.1-.1-.2-.2-.3.1.1.1.2.2.3a4.39,4.39,0,0,1,2.7-.9c2.6,0,4.2,1.5,4.2,4.1,0,.3-1,1.5-1,1.8,2.3-1.4,3.4-.3,3.8,1.9l1.6-.5a4.06,4.06,0,0,1,1.9-.4c2.6,0,4.2,1.3,4.2,4,0,.8-2.9,2.3-3.2,2.9a8,8,0,0,1,2.9-.8c2,0,2.7.2,3.2,2.4a4.66,4.66,0,1,0,8,4.5,1.38,1.38,0,0,1,2.4.3c.2.4-.1,1.1-.2,1.6a4.87,4.87,0,0,0,1.5,5,4.52,4.52,0,0,0,5.1.6,2.84,2.84,0,0,1,3.9,2.5,4.81,4.81,0,0,0,2.1,4.3,2,2,0,0,0,.8.4,4.19,4.19,0,0,0,4.4-.6,9,9,0,0,0,1-.9,1.66,1.66,0,0,1,3,.5,5.79,5.79,0,0,0,2.1,3,4.46,4.46,0,0,0,2.6.8,3.66,3.66,0,0,0,2.5-.9,6.49,6.49,0,0,0,2-2.9c.3-.7.6-3.3,1.7-1.9.5.7.8,1,1,1.3a6.79,6.79,0,0,0,1.2,1.2,4.32,4.32,0,0,0,4.5.4c.2-.1.3-.2.5-.3a5.31,5.31,0,0,0,2.2-5.1,2.27,2.27,0,0,1,.7-2,2.71,2.71,0,0,1,2-.1h.2a5,5,0,0,0,4.5-.2,5.5,5.5,0,0,0,.9-.7,5,5,0,0,0,.7-5.8,2.74,2.74,0,0,1,1.3-4c.3-.1.7-.2,1-.3a4.23,4.23,0,0,0,2.3-.8,4.93,4.93,0,0,0,2.1-2.9A4.37,4.37,0,0,0,906.1,253.5ZM844,268a3.5,3.5,0,1,1,3.4-3.5A3.6,3.6,0,0,1,844,268Zm13.9,3.4a3.43,3.43,0,0,1-4.8,1,3.65,3.65,0,0,1-1-4.9C854.5,263.8,860.3,267.5,857.9,271.4Zm11,5.8a6.12,6.12,0,0,1-.5,1.2,3.33,3.33,0,0,1-4.7,1,3.75,3.75,0,0,1-1.4-2.1,3.51,3.51,0,0,1,5.3-3.8A3.43,3.43,0,0,1,868.9,277.2Zm11.2,2.5a3,3,0,0,1-.4,1,3.36,3.36,0,0,1-4.7,1.2,3.47,3.47,0,0,1-1.5-2.1,3.64,3.64,0,0,1,.4-2.7,3.33,3.33,0,0,1,4.7-1.2A3.64,3.64,0,0,1,880.1,279.7Zm11.1-2.4a6.12,6.12,0,0,1-.5,1.2,3.33,3.33,0,0,1-4.7,1,3.75,3.75,0,0,1-1.4-2.1,3.5,3.5,0,0,1,.5-2.8,3.29,3.29,0,0,1,4.7-.9A3.44,3.44,0,0,1,891.2,277.3Zm8.5-32.8a3.23,3.23,0,0,1,4.7-1.1,3.49,3.49,0,0,1,1.5,3.7,2.22,2.22,0,0,1-.5,1.1,3.25,3.25,0,0,1-4.7,1.1,3.47,3.47,0,0,1-1.5-2.1A3.78,3.78,0,0,1,899.7,244.5Zm1,25.4a2.22,2.22,0,0,1-.5,1.1,3.31,3.31,0,0,1-4.7,1.1A3.22,3.22,0,0,1,894,270a3.57,3.57,0,0,1,.5-2.8,3.33,3.33,0,0,1,4.7-1.1A3.58,3.58,0,0,1,900.7,269.9Zm6.2-11.6a3.58,3.58,0,0,1-.4,1.1,3.36,3.36,0,0,1-4.7,1.2,3.68,3.68,0,0,1-1.4-2.2,4,4,0,0,1,.4-2.8,3.43,3.43,0,0,1,4.7-1.1A3.69,3.69,0,0,1,906.9,258.3Z" transform="translate(-96.9 -114.25)"/><path class="cls-1" d="M756,220.9a3.4,3.4,0,0,1-6.8,0,4.25,4.25,0,0,1,.2-1.1c-.4,0-.8-.1-1.3-.1a5,5,0,0,0-.2,1.2,4.6,4.6,0,1,0,9.2,0v-.1c-.4-.1-.9-.1-1.3-.2C756,220.7,756,220.8,756,220.9Z" transform="translate(-96.9 -114.25)"/><path class="cls-1" d="M768.8,223.6a3.4,3.4,0,0,1-6.8,0,3.45,3.45,0,0,1,.5-1.8,5.85,5.85,0,0,0-1.3-.2,4.58,4.58,0,1,0,8.7,2v-.1l-1.3-.3C768.8,223.3,768.8,223.4,768.8,223.6Z" transform="translate(-96.9 -114.25)"/><path class="cls-1" d="M781,227.2a3.33,3.33,0,0,1-3.4,3.2,3.37,3.37,0,0,1-3.4-3.4,3.77,3.77,0,0,1,.7-2.1c-.4-.1-.8-.3-1.3-.4a4.3,4.3,0,0,0-.7,2.5,4.59,4.59,0,0,0,4.6,4.6,4.64,4.64,0,0,0,4.6-4H782A6.9,6.9,0,0,1,781,227.2Z" transform="translate(-96.9 -114.25)"/><path class="cls-1" d="M789.5,234.8a3.37,3.37,0,0,1-3.4-3.4,3.46,3.46,0,0,1,.7-2,5.64,5.64,0,0,1-1.2-.4,4.81,4.81,0,0,0-.7,2.4,4.59,4.59,0,0,0,4.6,4.6,4.72,4.72,0,0,0,4.6-3.9l-1.2-.6A3.49,3.49,0,0,1,789.5,234.8Z" transform="translate(-96.9 -114.25)"/><path class="cls-1" d="M801.3,240.5a3.37,3.37,0,0,1-3.4-3.4,3.17,3.17,0,0,1,.9-2.3,10.9,10.9,0,0,1-1.1-.6,4.84,4.84,0,0,0-1,2.9,4.62,4.62,0,0,0,9.1,1.1l-1.2-.6A3.42,3.42,0,0,1,801.3,240.5Z" transform="translate(-96.9 -114.25)"/><path class="cls-1" d="M812.1,246.5a3.37,3.37,0,0,1-3.4-3.4,3.45,3.45,0,0,1,1.4-2.7l-1.2-.6a4.37,4.37,0,0,0-1.4,3.3,4.62,4.62,0,0,0,9.1,1.1,10.47,10.47,0,0,1-1.1-.8A3.46,3.46,0,0,1,812.1,246.5Z" transform="translate(-96.9 -114.25)"/><path class="cls-1" d="M835.7,258.4a3.41,3.41,0,0,1-6-2.2,3.25,3.25,0,0,1,2.2-3.1,6.73,6.73,0,0,0-.7-1.1,4.54,4.54,0,0,0-2.7,4.2,4.59,4.59,0,0,0,4.6,4.6,4.41,4.41,0,0,0,4.1-2.6A2.1,2.1,0,0,1,835.7,258.4Z" transform="translate(-96.9 -114.25)"/><path class="cls-1" d="M825.9,250.3a3.34,3.34,0,0,1-3.3,2.6,3.37,3.37,0,0,1-3.4-3.4,3.41,3.41,0,0,1,1.1-2.5c-.3-.2-.6-.5-1-.8a4.77,4.77,0,0,0-1.4,3.3,4.59,4.59,0,0,0,4.6,4.6,4.72,4.72,0,0,0,4.6-3.9A1.57,1.57,0,0,1,825.9,250.3Z" transform="translate(-96.9 -114.25)"/><path class="cls-2" d="M829.7,256.2a3.37,3.37,0,0,0,3.4,3.4,3.73,3.73,0,0,0,2.6-1.2c-1.8-.5-2.4-3-3.8-5.3A3.34,3.34,0,0,0,829.7,256.2Z" transform="translate(-96.9 -114.25)"/><path class="cls-2" d="M819.9,245.8c-.1-.1-.1-.2-.2-.3.1.1.2.2.2.3Z" transform="translate(-96.9 -114.25)"/><path class="cls-2" d="M820.9,247.7a3.29,3.29,0,0,0-.6-.6,3.25,3.25,0,0,0-1.1,2.5,3.37,3.37,0,0,0,3.4,3.4,3.42,3.42,0,0,0,3.3-2.6,13.2,13.2,0,0,1-3.5-.5,23.81,23.81,0,0,0-1.8-3l-.1.1A2.5,2.5,0,0,0,820.9,247.7Z" transform="translate(-96.9 -114.25)"/><path class="cls-2" d="M808.7,243.1a3.37,3.37,0,0,0,3.4,3.4,3.22,3.22,0,0,0,3.3-3.1,16.77,16.77,0,0,0-2.8-1.8c-.6-.3-1.5-.7-2.5-1.2A3.31,3.31,0,0,0,808.7,243.1Z" transform="translate(-96.9 -114.25)"/><path class="cls-2" d="M801.3,240.5a3.34,3.34,0,0,0,3.3-2.8c-2-1-4.1-2-5.8-2.9a3.17,3.17,0,0,0-.9,2.3A3.44,3.44,0,0,0,801.3,240.5Z" transform="translate(-96.9 -114.25)"/><path class="cls-2" d="M789.5,234.8a3.49,3.49,0,0,0,3.4-3.3,26.07,26.07,0,0,0-6.1-2.1,3.72,3.72,0,0,0-.7,2A3.37,3.37,0,0,0,789.5,234.8Z" transform="translate(-96.9 -114.25)"/><path class="cls-2" d="M777.6,230.5a3.4,3.4,0,0,0,3.4-3.2c-2-.8-4-1.6-6-2.2a3.14,3.14,0,0,0-.7,2.1A3.33,3.33,0,0,0,777.6,230.5Z" transform="translate(-96.9 -114.25)"/><path class="cls-2" d="M765.5,227a3.37,3.37,0,0,0,3.4-3.4v-.4c-2.1-.5-4.1-1-6.2-1.4a3.45,3.45,0,0,0-.5,1.8A3.29,3.29,0,0,0,765.5,227Z" transform="translate(-96.9 -114.25)"/><path class="cls-2" d="M852.1,265.5a3.52,3.52,0,0,0,1,4.8,3.62,3.62,0,0,0,4.8-1C860.3,265.5,854.5,261.9,852.1,265.5Z" transform="translate(-96.9 -114.25)"/><path class="cls-2" d="M863.9,278.5c-.3-.1-.5-.3-.8-.4a2.65,2.65,0,0,0,.6.5,3.3,3.3,0,0,0,4.5-.7A4.2,4.2,0,0,1,863.9,278.5Z" transform="translate(-96.9 -114.25)"/><path class="cls-2" d="M885.4,278.1l.6.6a3.34,3.34,0,0,0,4.3-.5,2.18,2.18,0,0,1-.5.3A4.61,4.61,0,0,1,885.4,278.1Z" transform="translate(-96.9 -114.25)"/><path class="cls-2" d="M874.3,280.4a4.35,4.35,0,0,0,.7.6,3.38,3.38,0,0,0,4.4-.7,5,5,0,0,1-2.5.9A4.7,4.7,0,0,1,874.3,280.4Z" transform="translate(-96.9 -114.25)"/><path class="cls-2" d="M902.7,260.8a3.39,3.39,0,0,0,3.4-1,4.76,4.76,0,0,1-2.3.7A8.11,8.11,0,0,0,902.7,260.8Z" transform="translate(-96.9 -114.25)"/><path class="cls-2" d="M895.3,271.2h-.2a1.38,1.38,0,0,0,.4.3,3.34,3.34,0,0,0,4.3-.5A5.39,5.39,0,0,1,895.3,271.2Z" transform="translate(-96.9 -114.25)"/><path class="cls-1" d="M752.6,216.3a4.71,4.71,0,0,0-4.5,3.5c.4,0,.8.1,1.3.1a3.37,3.37,0,0,1,3.2-2.3,3.46,3.46,0,0,1,3.4,3.1c.4.1.9.1,1.3.2A4.67,4.67,0,0,0,752.6,216.3Z" transform="translate(-96.9 -114.25)"/><path class="cls-1" d="M765.5,218.9a4.58,4.58,0,0,0-4.1,2.6,5.85,5.85,0,0,0,1.3.2,3.36,3.36,0,0,1,6.2,1.4l1.3.3A4.8,4.8,0,0,0,765.5,218.9Z" transform="translate(-96.9 -114.25)"/><path class="cls-1" d="M777.6,222.4a4.82,4.82,0,0,0-3.9,2.1c.4.1.8.3,1.3.4a3.32,3.32,0,0,1,2.6-1.3A3.37,3.37,0,0,1,781,227v.1c.4.2.7.3,1.1.5h.1c0-.2.1-.4.1-.6A4.67,4.67,0,0,0,777.6,222.4Z" transform="translate(-96.9 -114.25)"/><path class="cls-1" d="M789.5,226.8a4.84,4.84,0,0,0-4,2.2c.5.2.9.3,1.2.4a3.45,3.45,0,0,1,2.7-1.4,3.37,3.37,0,0,1,3.4,3.4v.1l1.2.6c0-.2.1-.5.1-.7A4.59,4.59,0,0,0,789.5,226.8Z" transform="translate(-96.9 -114.25)"/><path class="cls-1" d="M801.3,232.4a4.4,4.4,0,0,0-3.6,1.8c.4.2.7.4,1.1.6a3.25,3.25,0,0,1,2.5-1.1,3.37,3.37,0,0,1,3.4,3.4,1.27,1.27,0,0,1-.1.6l1.2.6a4.25,4.25,0,0,0,.2-1.1A4.78,4.78,0,0,0,801.3,232.4Z" transform="translate(-96.9 -114.25)"/><path class="cls-1" d="M812.1,238.4a4.45,4.45,0,0,0-3.2,1.3l1.2.6a3.45,3.45,0,0,1,5.4,2.8v.3a10.47,10.47,0,0,1,1.1.8,4.25,4.25,0,0,0,.2-1.1A4.69,4.69,0,0,0,812.1,238.4Z" transform="translate(-96.9 -114.25)"/><path class="cls-1" d="M833.1,251.6a5.85,5.85,0,0,0-1.9.4,4.13,4.13,0,0,1,.7,1.1,5,5,0,0,1,1.2-.2,3.37,3.37,0,0,1,3.4,3.4,3.49,3.49,0,0,1-.8,2.2,3,3,0,0,0,1.6-.1,4.69,4.69,0,0,0-4.2-6.8Z" transform="translate(-96.9 -114.25)"/><path class="cls-1" d="M820.5,247l.1-.1a6.73,6.73,0,0,0-.7-1.1h0Z" transform="translate(-96.9 -114.25)"/><path class="cls-1" d="M820.5,247a10.92,10.92,0,0,0-.6-1.1,2.65,2.65,0,0,0-.6.5c.4.3.7.6,1,.8C820.4,247.1,820.4,247,820.5,247Z" transform="translate(-96.9 -114.25)"/><path class="cls-1" d="M822.6,244.9a4.39,4.39,0,0,0-2.7.9,6.73,6.73,0,0,0,.7,1.1,3.72,3.72,0,0,1,2-.7,3.37,3.37,0,0,1,3.4,3.4,2.2,2.2,0,0,1-.1.8h1.3c0-.2.1-.5.1-.8A4.69,4.69,0,0,0,822.6,244.9Z" transform="translate(-96.9 -114.25)"/><path class="cls-3" d="M749.3,193.8a3.46,3.46,0,0,1,4.4-2.1,3.75,3.75,0,0,1,2.1,1.8,32.42,32.42,0,0,1,12.7-2.6,32,32,0,0,1,16.2,4.7l.1-4.8c-8.2-5.5-16.4-11.1-24.8-16.3-10.3-6.3-21.4-11.4-33.7-11.6-42.5-.5-62.7,25.4-72,28.4l7.5,13.3,35-8.4a2.19,2.19,0,0,0-.3-.5c1.3-.4,2.4-.8,3.5-1.2,1.4,2.1,3.2,3.4,5.8,2.7,2.4-.7,4.4,1,4.6-1.3,1.3-.8,1.2-2.8,2.1-1.2s2.5.4,4.3.1c2-.3,3-1.4,4.1-4.2a20.63,20.63,0,0,0,2.1-.2,2.92,2.92,0,0,0,.2.9,4.48,4.48,0,0,0,4.2,3.5c2.2.2,3.6-1,4.7-2.8a2.27,2.27,0,0,1,1.6-1.1,2.16,2.16,0,0,1,1.7,1c2.1,4.7,5.6,5.2,9.1,1.1,1.7.4,3.4.6,3.7,3.2a3.39,3.39,0,0,0,.6,1.5c.3-.3.7-.5,1-.8A3.51,3.51,0,0,1,749.3,193.8Zm-6.1-1.8a3.4,3.4,0,1,1-2-4.4A3.33,3.33,0,0,1,743.2,192Z" transform="translate(-96.9 -114.25)"/><path class="cls-1" d="M588.4,208l7.1-6.1c-.1-.2,1.2-.9,1.1-1.1,1.2-.6,22.9-2.1,25.5-1.2.1.5,37.7-2.9,37.8-2.4a4.61,4.61,0,0,0,7.8,2.7c1.6-1.3,2.7-1,3.1.9.8,3.8,4.3,5.3,7.6,3.1a2.58,2.58,0,0,1,3.9,1.7,4.52,4.52,0,0,0,3.1,4.1,4.57,4.57,0,0,0,5-1.2,2.89,2.89,0,0,1,4.5,1,4.82,4.82,0,0,0,4.3,3.4c2,.1,3.6-1,4.6-3.2a1.69,1.69,0,0,1,3-.5c1.7,2,3.6,2.7,5.6,1.9s2.9-2.4,3-5c0-.7.6-1.4,1-2.3.7.4,1.1.7,1.4.9a4.53,4.53,0,0,0,5.9-.5,4.93,4.93,0,0,0,.7-5.8,2.56,2.56,0,0,1,0-2.1,2.63,2.63,0,0,1,2-.8,4.61,4.61,0,0,0,4.7-2.7,4.77,4.77,0,0,0-1.2-5.5,2.69,2.69,0,0,1,.8-4.7,4.79,4.79,0,0,0,3-4.8,4.66,4.66,0,0,0-3.6-4.1c-2-.6-2.3-1.2-1.5-3.1s.8-3.7-.7-5.2a4.82,4.82,0,0,0-5.1-1.3,3.52,3.52,0,0,1-2.4-.5c-6.7-3.5-14.3-2.7-19.3,2.1a12,12,0,0,0,2.5,19.5,8.8,8.8,0,0,0,11-3.1,8.43,8.43,0,0,0-1.5-10.8,5.76,5.76,0,0,0-9.1,3,3.91,3.91,0,0,0,4.3,4.9c.9-.1,2.8-1.4,2.5-2.6a1,1,0,0,0-.4-.5c-.4-.4-1-.7-1.4-1.1s-.6-.7-.4-1.1c.3-.6,1.5-.7,2-.6a2.65,2.65,0,0,1,1.8,1.1,4.3,4.3,0,0,1,.5,4.6,5.57,5.57,0,0,1-6.7,2.7,6.6,6.6,0,0,1-4.8-7.5,8,8,0,0,1,6.1-6.6c4.2-.9,8.5.7,10.5,4.2a14.9,14.9,0,0,1,1.1,13.6,20.07,20.07,0,0,1-3.8,5.8,9.86,9.86,0,0,1-9.5,3c-6.3-1.1-11.8-4.2-17.5-7-10.4-5.2-20.7-10.6-31.3-15.3-11-4.9-22.5-8-34.9-7.2-6.4.4-19.7,2-52.5,18.9Zm135.2-36.1a3.4,3.4,0,1,1,4.1-2.5A3.44,3.44,0,0,1,723.6,171.9Zm4.6,9.9a3.43,3.43,0,0,1,1.5-6.7,3.36,3.36,0,0,1,2.5,4.1A3.4,3.4,0,0,1,728.2,181.8ZM726,194.3a3.4,3.4,0,1,1,4.1-2.5A3.39,3.39,0,0,1,726,194.3Zm-6.6,9.9a3.6,3.6,0,0,1-2.5-4.2,3.4,3.4,0,0,1,4.2-2.4,3.41,3.41,0,0,1-1.7,6.6Zm-12.1,1.9a3.28,3.28,0,0,1,4-2.6,3.37,3.37,0,1,1-1.4,6.6A3.28,3.28,0,0,1,707.3,206.1ZM696,207.5a3.6,3.6,0,0,1,4.2-2.5,3.4,3.4,0,0,1,2.4,4.2,3.33,3.33,0,0,1-4.1,2.5A3.43,3.43,0,0,1,696,207.5Zm-8.2-5.4a3.36,3.36,0,0,1,2.5,4.1,3.46,3.46,0,0,1-6.7-1.7A3.62,3.62,0,0,1,687.8,202.1Zm-15.7-2.5a3.41,3.41,0,0,1,4.1-2.5,3.54,3.54,0,0,1,2.5,4.2,3.41,3.41,0,0,1-4.1,2.5A3.6,3.6,0,0,1,672.1,199.6Zm-11-3.8a3.55,3.55,0,0,1,4.1-2.6,3.46,3.46,0,0,1,2.5,4.2,3.5,3.5,0,0,1-4.1,2.6A3.63,3.63,0,0,1,661.1,195.8Z" transform="translate(-96.9 -114.25)"/><path class="cls-1" d="M505.5,208.4s70.2,7.6,116.5,1.3l-14.2-26.5-98,4.5Z" transform="translate(-96.9 -114.25)"/><circle class="cls-4" cx="598.65" cy="211.89" r="4" transform="translate(-118.35 234.6) rotate(-31.95)"/><circle class="cls-4" cx="564.89" cy="214.59" r="4" transform="translate(-124.89 217.15) rotate(-31.95)"/><circle class="cls-4" cx="610.55" cy="210.34" r="4" transform="translate(-115.72 240.66) rotate(-31.95)"/><circle class="cls-4" cx="630.1" cy="101.15" r="4"/><path class="cls-1" d="M543.4,231s-123.4,7.1-166,26.3l-2-30,85.5-48Z" transform="translate(-96.9 -114.25)"/><circle class="cls-4" cx="304.1" cy="100.15" r="4"/><circle class="cls-4" cx="334.2" cy="84.55" r="4"/><path class="cls-1" d="M382,218.2a3.55,3.55,0,0,1-3.6,1.4,3.44,3.44,0,0,1-2.7-4.1,3.59,3.59,0,0,1,4.1-2.6,3.82,3.82,0,0,1,2.2,1.5v-1.9a4.81,4.81,0,0,0-5.9.2c-1.8,1.6-1.8,1.6-4.4.6,0-.5-.1-.9-.1-1.4a4.58,4.58,0,0,0-7.7-2.9c-1.6,1.3-2.8.9-3.1-1-.7-3.8-4.2-5.4-7.5-3.3a2.61,2.61,0,0,1-3.9-1.8,4.72,4.72,0,0,0-8-3.2,2.83,2.83,0,0,1-4.4-1.1,4.67,4.67,0,0,0-4.2-3.5c-2-.2-3.6,1-4.7,3.1-.7,1.4-2,1.6-3,.4-1.7-2.1-3.6-2.7-5.6-2s-2.9,2.4-3.1,4.9c0,.7-.7,1.4-1.1,2.3a9.91,9.91,0,0,0-1.4-.9,4.54,4.54,0,0,0-5.9.4,5.09,5.09,0,0,0-.9,5.8,2.56,2.56,0,0,1,0,2.1,2.37,2.37,0,0,1-2,.7,4.76,4.76,0,0,0-4.8,2.6,4.71,4.71,0,0,0,1,5.5,2.64,2.64,0,0,1-.9,4.6,4.65,4.65,0,0,0,.4,8.9c2,.6,2.3,1.3,1.5,3.2s-.9,3.7.5,5.3a4.68,4.68,0,0,0,5.1,1.4,4.18,4.18,0,0,1,2.4.5c6.6,3.7,14.3,3.1,19.4-1.6a12,12,0,0,0-2.1-19.6,8.76,8.76,0,0,0-11.1,2.8,8.39,8.39,0,0,0,1.2,10.8,5.76,5.76,0,0,0,9.2-2.8,3.92,3.92,0,0,0-4.2-5,3.65,3.65,0,0,0-2.4,1.8c-.6,1.1.5,1.4,1.3,1.8.5.2.6,1.1.9,1.6a1.45,1.45,0,0,1-1.7.7c-2.7-.3-4.1-3.3-2.7-5.9a5.49,5.49,0,0,1,6.8-2.5,6.58,6.58,0,0,1,4.6,7.6,8,8,0,0,1-6.2,6.5,9.72,9.72,0,0,1-10.4-4.4,14.88,14.88,0,0,1-.7-13.6,19,19,0,0,1,4-5.7,10.24,10.24,0,0,1,9.6-2.8c6.3,1.3,10.7,9.2,16.2,12.1,10.3,5.4,21.5,6.5,31.9,11.5C376.6,238.7,382,218.2,382,218.2Zm-80.8-2.5a3.36,3.36,0,0,1,6.5,1.7,3.27,3.27,0,0,1-4.1,2.4A3.19,3.19,0,0,1,301.2,215.7Zm-.1,16.7a3.46,3.46,0,0,1,1.7-6.7,3.46,3.46,0,1,1-1.7,6.7Zm8.5,7.5a3.36,3.36,0,1,1-6.5-1.7,3.36,3.36,0,1,1,6.5,1.7Zm4.9-32.2a3.39,3.39,0,0,1-4.2,2.3,3.31,3.31,0,0,1-2.3-4.2,3.45,3.45,0,0,1,4.2-2.4A3.63,3.63,0,0,1,314.5,207.7Zm9.9-5.8a3.25,3.25,0,0,1-4.1,2.5,3.42,3.42,0,0,1-2.6-4.1,3.36,3.36,0,0,1,4.1-2.5A3.47,3.47,0,0,1,324.4,201.9Zm11.3-1a3.45,3.45,0,0,1-4.2,2.4,3.39,3.39,0,0,1-2.3-4.2,3.37,3.37,0,1,1,6.5,1.8Zm12.2,3.1a3.42,3.42,0,0,1-6.6-1.8,3.49,3.49,0,0,1,4.2-2.4A3.45,3.45,0,0,1,347.9,204Zm22.4,9.4a3.65,3.65,0,0,1-4.2,2.5,3.45,3.45,0,0,1-2.4-4.2,3.51,3.51,0,0,1,4.2-2.5A3.57,3.57,0,0,1,370.3,213.4Z" transform="translate(-96.9 -114.25)"/><circle class="cls-4" cx="260.6" cy="108.15" r="4"/><circle class="cls-4" cx="293.1" cy="105.15" r="4"/><path class="cls-3" d="M660.8,221.9c3.8-.7,5.7-3,5.5-6.3s-2.4-5-6.1-5.4c-.8-.1-1.5-1.1-2.5-1.8,4.3-3,5.3-5.6,3.8-8.7s-4.5-3.9-8.8-2.3c-.7-1-1.5-2-2.2-3,3.2-3.7,3.5-7,1-9.5s-5.6-2.3-9.4,1a24.26,24.26,0,0,0-2-1.4c1.5-4.6,1-7.2-1.8-8.9s-5.6-.8-8.7,2.7c-1.4-.6-2.9-1.3-4.3-1.9.5-4.4-.6-6.9-3.5-8-3.1-1.1-5.3,0-8.2,4.4-.9-.2-1.8-.5-2.6-.7-.5-4.6-1.9-6.6-5.1-7.2-2.9-.6-5,.9-6.9,4.9-3.1.2-3.1.2-3.9-2.5a5.5,5.5,0,0,0-5.8-4.1c-3.3.2-4.7,2.4-5.6,5.2-2.3.2-4.3.4-5.2-2.6-.4-1.2-2-2.3-3.4-2.9-3.2-1.2-5.5.3-7.6,4.6-2.5.4-4.6.5-5.8-2.8-.5-1.3-2.9-2.4-4.6-2.6-3.3-.5-5,2-6.1,4.9-3.5-.2-6.8-.3-10.1-.6a159.71,159.71,0,0,1-17.1-2.1l.4,32.1a132.67,132.67,0,0,0,14.1.2c9.1-.3,18.2-.7,27.3-1.1,13.3-.6,23.5,2.6,36.6,4.9,8.8,1.6,20.4.9,27.9,6.1,7.7,5.3,11.2,12.6,10.2,22.1C639.1,240.2,629,247,619,243a9.38,9.38,0,0,1-3.7-14.8,8.08,8.08,0,0,1,9.4-2.2,6.48,6.48,0,0,1,4.2,7c-.3,3.5-3.9,5.7-6.7,4a2.56,2.56,0,0,1-1-1.8,3.15,3.15,0,0,1,1.9-1.2c.8-.3,2.3-.4,2.3-.6a5.93,5.93,0,0,0-.6-3.3c-1.9-2.4-6.2-1.6-7.6,1.2-1.3,2.6-.7,5.1,1.1,7.3a5.83,5.83,0,0,0,6.6,2.2,11.09,11.09,0,0,0,8-10.1c.1-5-4.1-10.5-9.2-12-8.9-2.5-18.5,6.8-17.2,16.7,1,7.6,5.5,12.5,12.1,15.6a5.13,5.13,0,0,1,2.2,2.4c.9,2.4,2.5,4,5.1,4.2a5.45,5.45,0,0,0,5.6-3.3c1.2-2.3,3-2.4,4.6-.3a5.79,5.79,0,0,0,6.8,2.2,5.89,5.89,0,0,0,3.7-6.2,9.08,9.08,0,0,1,.3-2.3,7,7,0,0,1,2,.8,6,6,0,0,0,7.3-1.2,6.29,6.29,0,0,0,.2-7.5,7.61,7.61,0,0,1-.8-2.1,7.27,7.27,0,0,1,2.5-.4c3.1.2,5.7-1.4,6.4-4.1a5.84,5.84,0,0,0-3.2-7c-.4-.2-.9-.4-1.5-.7.2-1.1.3-2.2.5-3.2C660.5,222,660.6,221.9,660.8,221.9ZM557,172.1a4.1,4.1,0,0,1-4.2-4.2,4.18,4.18,0,0,1,4.2-4.3,4.25,4.25,0,0,1,0,8.5Zm16.7.7a4.36,4.36,0,0,1-.4-8.7,4.33,4.33,0,0,1,4.4,4.2A4.26,4.26,0,0,1,573.7,172.8Zm16,.5a4.4,4.4,0,0,1-4.3-4.3,4.31,4.31,0,0,1,4.3-4.2,4.4,4.4,0,0,1,4.3,4.3A4.31,4.31,0,0,1,589.7,173.3Zm15.4,1.8a4.4,4.4,0,1,1,4.3-4.4A4.49,4.49,0,0,1,605.1,175.1Zm14.9,3a4,4,0,0,1-4.3-4.1,4.19,4.19,0,0,1,4.1-4.4,4,4,0,0,1,4.3,4.1A4.13,4.13,0,0,1,620,178.1Zm15.5,6.7a4.1,4.1,0,0,1-4.2-4.2,4.18,4.18,0,0,1,4.2-4.3,4.25,4.25,0,0,1,4.3,4.2A4.47,4.47,0,0,1,635.5,184.8Zm-9,71.4a4.33,4.33,0,0,1-4.4-4.2,4.21,4.21,0,0,1,4.2-4.4,4.39,4.39,0,0,1,4.4,4.2A4.21,4.21,0,0,1,626.5,256.2ZM656.3,198a4.25,4.25,0,0,1,4.2,4.3,4.18,4.18,0,0,1-4.2,4.3,4.1,4.1,0,0,1-4.2-4.2A4.27,4.27,0,0,1,656.3,198Zm-15.4,57.1a4.1,4.1,0,0,1-4.2-4.2,4.18,4.18,0,0,1,4.2-4.3,4.25,4.25,0,0,1,4.3,4.2A4.47,4.47,0,0,1,640.9,255.1Zm2.4-66a4.4,4.4,0,0,1,4.1-4.5,4.35,4.35,0,0,1,.2,8.7A4.18,4.18,0,0,1,643.3,189.1ZM656,243.4a4,4,0,0,1-4.2,4.2,4.25,4.25,0,1,1,4.2-4.2Zm7-12.1a4.13,4.13,0,0,1-4.1,4.4,4,4,0,0,1-4.3-4.1,4.25,4.25,0,0,1,4.1-4.4A4.1,4.1,0,0,1,663,231.3Zm-6.7-15.1a4.19,4.19,0,0,1,4.1-4.4,4.27,4.27,0,0,1,4.4,4.2,4.31,4.31,0,0,1-4.1,4.4A4.4,4.4,0,0,1,656.3,216.2Z" transform="translate(-96.9 -114.25)"/><path class="cls-3" d="M615.9,216.6a8.26,8.26,0,0,1,8.8-1.6,6.48,6.48,0,0,1,4.2,7c-.3,3.5-3.9,5.7-6.7,4a2.56,2.56,0,0,1-1-1.8,3.15,3.15,0,0,1,1.9-1.2c.8-.3,2.3-.4,2.3-.6a5.93,5.93,0,0,0-.6-3.3c-1.9-2.4-6.2-1.6-7.6,1.2a1.42,1.42,0,0,0-.2.6,11.49,11.49,0,0,1,.1,1.9,20.09,20.09,0,0,1-.1,2.5,7.55,7.55,0,0,0,1.3,2.3,5.83,5.83,0,0,0,6.6,2.2,11.09,11.09,0,0,0,8-10.1c.1-5-4.1-10.5-9.2-12-4.5-1.3-9.3.5-12.7,3.9A8.92,8.92,0,0,1,615.9,216.6Z" transform="translate(-96.9 -114.25)"/><path class="cls-2" d="M746.6,185.6a3.54,3.54,0,0,0-4.4,2.1,3.46,3.46,0,0,0,.5,3,34.71,34.71,0,0,1,5.9-3.4A3.43,3.43,0,0,0,746.6,185.6Z" transform="translate(-96.9 -114.25)"/><path class="cls-2" d="M807.5,182.6a3.86,3.86,0,0,0-.9-5.6l-.2,6.8A12,12,0,0,0,807.5,182.6Z" transform="translate(-96.9 -114.25)"/><path class="cls-2" d="M698.6,183.3a3.5,3.5,0,0,0-4.4,2.1,3.38,3.38,0,1,0,6.4,2.2A3.22,3.22,0,0,0,698.6,183.3Z" transform="translate(-96.9 -114.25)"/><path class="cls-2" d="M734.2,181.6a3.54,3.54,0,0,0-4.4,2.1,3.49,3.49,0,0,0,2,4.4,3.54,3.54,0,0,0,4.4-2.1A3.33,3.33,0,0,0,734.2,181.6Z" transform="translate(-96.9 -114.25)"/><path class="cls-2" d="M710.3,180.7a3.69,3.69,0,0,0-4.5,2,3.6,3.6,0,0,0,2,4.5,3.36,3.36,0,0,0,4.4-2A3.47,3.47,0,0,0,710.3,180.7Z" transform="translate(-96.9 -114.25)"/><path class="cls-2" d="M819.1,176.8a3.36,3.36,0,0,0,4.4-2,3.35,3.35,0,1,0-4.4,2Z" transform="translate(-96.9 -114.25)"/><path class="cls-2" d="M813.4,202.1A3.28,3.28,0,0,0,809,204a3.4,3.4,0,0,0,1.9,4.4,3.39,3.39,0,1,0,2.5-6.3Z" transform="translate(-96.9 -114.25)"/><path class="cls-2" d="M821.1,193a3.36,3.36,0,0,0-4.4,2,3.22,3.22,0,0,0,2,4.3,3.36,3.36,0,0,0,4.4-2A3.3,3.3,0,0,0,821.1,193Z" transform="translate(-96.9 -114.25)"/><path class="cls-2" d="M808.6,174.9a8.35,8.35,0,0,1,.1,10.9,9.58,9.58,0,0,1-2.5,2l-.3,8.6a10.89,10.89,0,0,0,2.3-1.4,17.43,17.43,0,0,0,4.5-5.3,15.14,15.14,0,0,0,.6-13.6,9.46,9.46,0,0,0-6.6-5.2l-.1,2.9A3.09,3.09,0,0,1,808.6,174.9Z" transform="translate(-96.9 -114.25)"/><path class="cls-2" d="M824.8,180.7a3.59,3.59,0,0,0-4.4,2.1,3.4,3.4,0,1,0,6.4,2.3A3.49,3.49,0,0,0,824.8,180.7Z" transform="translate(-96.9 -114.25)"/><path class="cls-3" d="M407.7,200.6c-28.4-23-42.7-25.4-49-26.8-12-2.6-23.9-1.4-35.6,1.8-11.2,3-22.2,6.8-33.3,10.3-6,1.9-11.9,4.1-18.4,4.2a10,10,0,0,1-8.9-4.4,19,19,0,0,1-2.9-6.3,15.33,15.33,0,0,1,3.2-13.3,9.89,9.89,0,0,1,11.1-2.5,7.88,7.88,0,0,1,5,7.5,6.77,6.77,0,0,1-5.9,6.7,5.56,5.56,0,0,1-6.2-3.7c-1-2.9,1.7-6.6,4.8-4.9a1,1,0,0,1,.5.4c1,1.1-.5,1.4-1.3,1.6a1.81,1.81,0,0,0-1.3,2.3,2.05,2.05,0,0,0,1.8,1.4,4,4,0,0,0,5-4.2,5.75,5.75,0,0,0-8.5-4.4,8.38,8.38,0,0,0-3.1,10.4,8.75,8.75,0,0,0,10.4,4.8c8-2.7,10.7-12.1,5.5-18.9-4.2-5.5-11.6-7.4-18.8-5a3.61,3.61,0,0,1-2.5.1,4.87,4.87,0,0,0-5.3.5c-1.7,1.3-1.9,3.1-1.5,5.1s.1,2.6-2,2.9a4.66,4.66,0,0,0-2,8.7,2.65,2.65,0,0,1,.1,4.7,4.65,4.65,0,0,0-2,5.2,4.87,4.87,0,0,0,4.3,3.4c.7.1,1.6.5,1.8,1.1a2.41,2.41,0,0,1-.3,2,5.14,5.14,0,0,0-.2,5.8,4.68,4.68,0,0,0,5.8,1.4,15.07,15.07,0,0,1,1.5-.6c1.4-.4.7,1.7.7,2.4-.3,2.5.3,4.3,2.2,5.4s3.9.7,5.9-1a1.6,1.6,0,0,1,2.8.9c.6,2.3,2,3.7,4,3.9a4.79,4.79,0,0,0,4.8-2.7,2.82,2.82,0,0,1,4.5-.3,4.44,4.44,0,0,0,4.7,1.9,4.71,4.71,0,0,0,3.7-3.6,2.65,2.65,0,0,1,4.2-1.1c2.9,2.7,6.6,1.8,8-1.9.7-1.8,1.9-2,3.2-.4a4.59,4.59,0,0,0,8.1-1.5,5.73,5.73,0,0,0,.4-1.4c2.7-.6,2.7-.6,4.2,1.3,2,2.5,6.3,2.4,7.5-.5,1-2.4,2.6-2.1,4.4-2.1,2.2,4.9,5.7,5.4,9,1.4.4-.4-2.7,1.6-2.2,1.8,6,1.6,10.5,15.2,15.3,19-.7.6,11.5,3.6,10.8,4.2,2.6.8,22.5-5.3,19.3-2.1ZM253.6,162a3.36,3.36,0,1,1,3.6,3.1A3.24,3.24,0,0,1,253.6,162Zm-6.1,9.1a3.46,3.46,0,0,1,3.1-3.7,3.51,3.51,0,0,1,3.6,3.2,3.61,3.61,0,0,1-3.2,3.7A3.41,3.41,0,0,1,247.5,171.1Zm.2,12.7a3.36,3.36,0,1,1,3.6,3.1A3.18,3.18,0,0,1,247.7,183.8Zm4.9,10.9a3.42,3.42,0,0,1,6.8-.7,3.38,3.38,0,0,1-3.1,3.7A3.24,3.24,0,0,1,252.6,194.7Zm12.2,10.4a3.41,3.41,0,1,1,3.2-3.6A3.32,3.32,0,0,1,264.8,205.1Zm11.1,3.3a3.47,3.47,0,0,1-.7-6.9,3.47,3.47,0,0,1,.7,6.9Zm15.7-4.7a3.39,3.39,0,0,1-3.1,3.7,3.46,3.46,0,0,1-3.7-3.2,3.41,3.41,0,1,1,6.8-.5Zm9.1.5a3.38,3.38,0,0,1-3.7-3.1,3.33,3.33,0,0,1,3.1-3.7,3.41,3.41,0,1,1,.6,6.8Zm11.4-2a3.52,3.52,0,0,1-3.7-3.2,3.46,3.46,0,0,1,3.1-3.7,3.68,3.68,0,0,1,3.7,3.2A3.39,3.39,0,0,1,312.1,202.2Zm12.5-1.6a3.4,3.4,0,1,1-.2-6.8,3.46,3.46,0,0,1,3.6,3.3A3.59,3.59,0,0,1,324.6,200.6Zm13.3-.3a3.38,3.38,0,0,1-3.6-3.2,3.47,3.47,0,0,1,3.2-3.7,3.38,3.38,0,0,1,3.6,3.2A3.62,3.62,0,0,1,337.9,200.3Z" transform="translate(-96.9 -114.25)"/><path class="cls-5" d="M660.8,242.9c3.8-.7,5.7-3,5.5-6.3s-2.4-5-6.1-5.4c-.8-.1-1.5-1.1-2.5-1.8,4.3-3,5.3-5.6,3.8-8.7s-4.5-3.9-8.8-2.3c-.7-1-1.5-2-2.2-3,3.2-3.7,3.5-7,1-9.5s-5.6-2.3-9.4,1a24.26,24.26,0,0,0-2-1.4c1.5-4.6,1-7.2-1.8-8.9s-5.6-.8-8.7,2.7c-1.4-.6-2.9-1.3-4.3-1.9.5-4.4-.6-6.9-3.5-8-3.1-1.1-5.3,0-8.2,4.4-.9-.2-1.8-.5-2.6-.7-.5-4.6-1.9-6.6-5.1-7.2-2.9-.6-5,.9-6.9,4.9-3.1.2-3.1.2-3.9-2.5a5.5,5.5,0,0,0-5.8-4.1c-3.3.2-4.7,2.4-5.6,5.2-2.3.2-4.3.4-5.2-2.6-.4-1.2-2-2.3-3.4-2.9-3.2-1.2-5.5.3-7.6,4.6-2.5.4-4.6.5-5.8-2.8-.5-1.3-2.9-2.4-4.6-2.6-3.3-.5-5,2-6.1,4.9-3.5-.2-6.8-.3-10.1-.6-5.8-.5-59,.2-64.7-.9l23.2,54.4c4.7.3,31.8-10.1,36-8,10,5,22.9,2.4,32,2,13.3-.6,23.8-6.3,37-4,8.8,1.6,18.2-8.6,25.6-3.4,7.7,5.3,11.2,12.6,10.2,22.1C639.1,261.2,629,268,619,264a9.38,9.38,0,0,1-3.7-14.8,8.08,8.08,0,0,1,9.4-2.2,6.48,6.48,0,0,1,4.2,7c-.3,3.5-3.9,5.7-6.7,4a2.56,2.56,0,0,1-1-1.8,3.15,3.15,0,0,1,1.9-1.2c.8-.3,2.3-.4,2.3-.6a5.93,5.93,0,0,0-.6-3.3c-1.9-2.4-6.2-1.6-7.6,1.2-1.3,2.6-.7,5.1,1.1,7.3a5.83,5.83,0,0,0,6.6,2.2,11.09,11.09,0,0,0,8-10.1c.1-5-4.1-10.5-9.2-12-8.9-2.5-18.5,6.8-17.2,16.7,1,7.6,5.5,12.5,12.1,15.6a5.13,5.13,0,0,1,2.2,2.4c.9,2.4,2.5,4,5.1,4.2a5.45,5.45,0,0,0,5.6-3.3c1.2-2.3,3-2.4,4.6-.3a5.79,5.79,0,0,0,6.8,2.2,5.89,5.89,0,0,0,3.7-6.2,9.08,9.08,0,0,1,.3-2.3,7,7,0,0,1,2,.8,6,6,0,0,0,7.3-1.2,6.29,6.29,0,0,0,.2-7.5,7.61,7.61,0,0,1-.8-2.1,7.27,7.27,0,0,1,2.5-.4c3.1.2,5.7-1.4,6.4-4.1a5.84,5.84,0,0,0-3.2-7c-.4-.2-.9-.4-1.5-.7.2-1.1.3-2.2.5-3.2C660.5,243,660.6,242.9,660.8,242.9ZM557,193.1a4.1,4.1,0,0,1-4.2-4.2,4.18,4.18,0,0,1,4.2-4.3,4.25,4.25,0,0,1,0,8.5Zm16.7.7a4.36,4.36,0,0,1-.4-8.7,4.33,4.33,0,0,1,4.4,4.2A4.26,4.26,0,0,1,573.7,193.8Zm16,.5a4.4,4.4,0,0,1-4.3-4.3,4.31,4.31,0,0,1,4.3-4.2,4.4,4.4,0,0,1,4.3,4.3A4.31,4.31,0,0,1,589.7,194.3Zm15.4,1.8a4.4,4.4,0,1,1,4.3-4.4A4.49,4.49,0,0,1,605.1,196.1Zm14.9,3a4,4,0,0,1-4.3-4.1,4.19,4.19,0,0,1,4.1-4.4,4,4,0,0,1,4.3,4.1A4.13,4.13,0,0,1,620,199.1Zm15.5,6.7a4.1,4.1,0,0,1-4.2-4.2,4.18,4.18,0,0,1,4.2-4.3,4.25,4.25,0,0,1,4.3,4.2A4.47,4.47,0,0,1,635.5,205.8Zm-9,71.4a4.33,4.33,0,0,1-4.4-4.2,4.21,4.21,0,0,1,4.2-4.4,4.39,4.39,0,0,1,4.4,4.2A4.21,4.21,0,0,1,626.5,277.2ZM656.3,219a4.25,4.25,0,0,1,4.2,4.3,4.18,4.18,0,0,1-4.2,4.3,4.1,4.1,0,0,1-4.2-4.2A4.27,4.27,0,0,1,656.3,219Zm-15.4,57.1a4.1,4.1,0,0,1-4.2-4.2,4.18,4.18,0,0,1,4.2-4.3,4.25,4.25,0,0,1,4.3,4.2A4.47,4.47,0,0,1,640.9,276.1Zm2.4-66a4.4,4.4,0,0,1,4.1-4.5,4.35,4.35,0,0,1,.2,8.7A4.18,4.18,0,0,1,643.3,210.1ZM656,264.4a4,4,0,0,1-4.2,4.2,4.25,4.25,0,1,1,4.2-4.2Zm7-12.1a4.13,4.13,0,0,1-4.1,4.4,4,4,0,0,1-4.3-4.1,4.25,4.25,0,0,1,4.1-4.4A4.1,4.1,0,0,1,663,252.3Zm-6.7-15.1a4.19,4.19,0,0,1,4.1-4.4,4.27,4.27,0,0,1,4.4,4.2,4.31,4.31,0,0,1-4.1,4.4A4.4,4.4,0,0,1,656.3,237.2Z" transform="translate(-96.9 -114.25)"/><rect class="cls-6" y="427.85" width="873.5" height="36.6"/><rect class="cls-7" x="32" y="464.45" width="809.6" height="221.3"/><rect class="cls-8" x="31.5" y="464.75" width="31" height="221"/><rect class="cls-8" x="810.5" y="464.75" width="31" height="221"/><polygon class="cls-9" points="31.5 464.75 31.5 507.05 841.2 464.75 31.5 464.75"/><path class="cls-10" d="M745.4,205a10.2,10.2,0,0,0-10.2-10h-403a9.86,9.86,0,0,0-9.8,10V432h423Z" transform="translate(-96.9 -114.25)"/><path class="cls-11" d="M322.4,432v33a9.86,9.86,0,0,0,9.8,10h403a10.2,10.2,0,0,0,10.2-10V432Z" transform="translate(-96.9 -114.25)"/><circle class="cls-12" cx="436.8" cy="339.75" r="9"/><rect class="cls-13" x="397.5" y="360.75" width="79" height="67"/><polygon class="cls-14" points="397.5 360.75 476.5 360.75 397.5 372.25 397.5 360.75"/><rect class="cls-14" x="341.5" y="417.75" width="190" height="10"/><rect class="cls-14" x="43.5" y="372.25" width="159.3" height="27.5"/><rect class="cls-15" x="54.3" y="379.05" width="120" height="13.8"/><rect class="cls-15" x="180.2" y="379.05" width="4.9" height="13.8"/><rect class="cls-15" x="189" y="379.05" width="4.9" height="13.8"/><rect class="cls-16" x="60.5" y="399.75" width="159.3" height="27.5"/><rect class="cls-16" x="71.3" y="406.65" width="120" height="13.8"/><rect class="cls-16" x="197.2" y="406.65" width="4.9" height="13.8"/><rect class="cls-16" x="206" y="406.65" width="4.9" height="13.8"/><path class="cls-12" d="M188.4,419v58a10,10,0,0,0,10,10h43a10,10,0,0,0,10-10V419Z" transform="translate(-96.9 -114.25)"/><path class="cls-17" d="M190.4,432.5h-13s-6.5-.5-7.5,4.5v27a7.75,7.75,0,0,0,7.2,4.5h14.3" transform="translate(-96.9 -114.25)"/><path class="cls-10" d="M674.4,539a3,3,0,0,1-3,3h-274a3,3,0,0,1-3-3v-4a3,3,0,0,1,3-3h274a3,3,0,0,1,3,3Z" transform="translate(-96.9 -114.25)"/><path class="cls-1" d="M327,233.7c.2-2.7-1.5-5.4-4.6-4.8a38.92,38.92,0,0,0,0,4.9,39,39,0,0,0-.1,4C325.7,237.2,326.7,236.5,327,233.7Z" transform="translate(-96.9 -114.25)"/><path class="cls-1" d="M327.3,222.9a11.84,11.84,0,0,0-4.9-.9c0,1.1-.4,1.7-.5,2.9,0,0-.3,1.2.3,1.1a9.28,9.28,0,0,1,2.4.3,6.58,6.58,0,0,1,4.6,7.6,8,8,0,0,1-6.2,6.5,12.1,12.1,0,0,1-3.8,0,22.09,22.09,0,0,1-3.6,5.7,16.26,16.26,0,0,0,13.8-3.6A12,12,0,0,0,327.3,222.9Z" transform="translate(-96.9 -114.25)"/><path class="cls-5" d="M536.3,167.2c-4.5-4-8.6-6.1-6.2-11.6a7.5,7.5,0,0,1,3.7,6.2c.9-4,1.1-12.2-3-12.5-1.4-.1-2.8.6-4.2.2s-2.1-2-2.7-3.4c-2.6-6.5-4.8-13.1-9.2-18.7-6.4-8.2-16.6-11.6-26.7-12.9-12.6-1.5-25.7,3.8-32.6,14.6a31,31,0,0,0-3.1,27.3,36.16,36.16,0,0,0,7.5,12.1,48.08,48.08,0,0,0,5.3,4.9c8.6,7,18.8,10,30.3,5.8,3.2-1.1,7.7-2.7,8.2-6.6.3-2-1.1-3.9-2.3-5.5a9.08,9.08,0,0,1-.7,4.3c-1.3,0-2-1.4-2.4-2.6a11.3,11.3,0,0,1-.9-4.5,4.5,4.5,0,0,1,2.2-3.8,4.78,4.78,0,0,1,2.9-.3,7.49,7.49,0,0,1,5,4.5c4.8,11.1-6.2,16.6-15.5,18-12.2,1.9-23.2-2-33-9.1-5.3-3.8-10.7-8.9-17.7-7.5-12.9,2.5-17.2,8.1-27.3,16.1-9.7,7.7-18.8,16.1-28.2,24.2-5.1,4.4-9.9,9-16.2,11.9a10.81,10.81,0,0,1-10.6-.5,18.81,18.81,0,0,1-5.5-5,15.92,15.92,0,0,1-2.5-14.3c1.2-4.1,5.2-6.9,9.8-7.1a8.52,8.52,0,0,1,8.1,5.2,7,7,0,0,1-3,9,6,6,0,0,1-7.7-1c-2.1-2.3-1.4-5.8,1.4-6.7.8-.3,2.3,0,2.1,1.1a2.15,2.15,0,0,1-.9,1.2c-.6.5-1.4,1.3-.7,2.1a4.34,4.34,0,0,0,3,1.3,4.16,4.16,0,0,0,3.1-6.2,6.13,6.13,0,0,0-10.2-.6,9,9,0,0,0,1.4,11.5,9.28,9.28,0,0,0,12.2.2,12.68,12.68,0,0,0-2.6-20.7c-6.4-3.6-14.6-2.3-20.5,3.1a4.57,4.57,0,0,1-2.4,1.2c-2.2.1-3.9.8-4.9,2.7s-.6,3.8.7,5.6,1.2,2.5-.7,3.7a5.2,5.2,0,0,0-2.6,5.2,5,5,0,0,0,4.4,4.1A2.86,2.86,0,0,1,343,218a4.82,4.82,0,0,0,.3,6,5.19,5.19,0,0,0,5.6,1.5,2.69,2.69,0,0,1,2.2.3,2.21,2.21,0,0,1,.5,2.1,5.36,5.36,0,0,0,2.3,5.7,4.84,4.84,0,0,0,6.2-1.1c.3-.3.6-.6,1.2-1.3.7.8,1.5,1.4,1.7,2.1.8,2.6,2.2,4.1,4.4,4.3s4.1-.9,5.3-3.5a1.78,1.78,0,0,1,3.2-.3c1.6,2,3.5,2.8,5.6,2.1a4.83,4.83,0,0,0,3.5-4.6,3,3,0,0,1,4.3-2.2,5,5,0,0,0,5.4-.1,4.88,4.88,0,0,0,2.1-5c-.3-1.8,1.8-3.4,3.6-2.8,3.9,1.4,7.2-1.1,7-5.2-.1-2,1-2.7,3-1.8a4.93,4.93,0,0,0,7.3-4.9,7.72,7.72,0,0,0-.2-1.5c2.4-1.7,2.4-1.7,4.7-.5,3,1.6,7.2-.4,7.1-3.7,0-2.8,1.7-3.2,3.4-3.9,4.3,3.8,7.9,2.8,9.5-2.4a2.5,2.5,0,0,1,1.7-1.3,2.27,2.27,0,0,1,1.8.9c1.4,1.8,3.1,2.8,5.4,2.3A4.77,4.77,0,0,0,455,195a3.33,3.33,0,0,0,0-1,21.05,21.05,0,0,1,2.3-.1c1.6,2.9,2.8,3.8,5,3.9a4.6,4.6,0,0,0,4.4-2.5c.8-1.7,1.8-1.8,3.3-1.2.5,2.4,1.6,4.3,4.3,4.7s4.6-1.1,5.8-3.6c1.3-2,17.5-1.6,17.5-1.6s49.4-4.3,49.7-5C547.8,180.5,541.9,172.1,536.3,167.2ZM340.2,198.9a3.62,3.62,0,1,1,6.4-3.4,3.62,3.62,0,0,1-6.4,3.4Zm2.8,12.9a3.67,3.67,0,0,1-3.4-6.5,3.77,3.77,0,0,1,4.9,1.6A3.53,3.53,0,0,1,343,211.8Zm5.6,12.3a3.62,3.62,0,1,1-3.4-6.4,3.64,3.64,0,0,1,4.9,1.5A3.45,3.45,0,0,1,348.6,224.1Zm9.5,8.5a3.6,3.6,0,0,1-3.5-6.3,3.63,3.63,0,0,1,5,1.4A3.69,3.69,0,0,1,358.1,232.6Zm11.5,3.5a3.62,3.62,0,1,1,1.7-4.9A3.81,3.81,0,0,1,369.6,236.1Zm12.2-1.6a3.63,3.63,0,0,1-4.9-1.4,3.69,3.69,0,0,1,1.3-5,3.75,3.75,0,0,1,5,1.4A3.61,3.61,0,0,1,381.8,234.5Zm11.9-6.2a3.88,3.88,0,0,1-5-1.5,3.64,3.64,0,0,1,1.5-4.9,3.65,3.65,0,0,1,3.5,6.4Zm10.6-8.3a3.65,3.65,0,1,1,1.4-4.9A3.53,3.53,0,0,1,404.3,220Zm10.3-6.8a3.88,3.88,0,0,1-5-1.5,3.69,3.69,0,1,1,5,1.5Zm11.6-6.9a3.65,3.65,0,0,1-4.9-1.7,3.82,3.82,0,0,1,1.8-4.9,3.65,3.65,0,0,1,4.9,1.7A3.82,3.82,0,0,1,426.2,206.3Zm12.8-5.9a3.65,3.65,0,0,1-4.9-1.6,3.7,3.7,0,0,1,1.5-4.9,3.65,3.65,0,0,1,4.9,1.6A3.73,3.73,0,0,1,439,200.4Zm13-2.8a3.81,3.81,0,0,1-5-1.4,3.88,3.88,0,0,1,1.5-5,3.72,3.72,0,0,1,5,1.4A3.85,3.85,0,0,1,452,197.6Zm12.3-1.5a3.69,3.69,0,0,1-3.5-6.5,3.69,3.69,0,1,1,3.5,6.5Zm12.5,1.1a3.67,3.67,0,0,1-4.9-1.6,3.53,3.53,0,0,1,1.6-4.8,3.65,3.65,0,0,1,4.9,1.6A3.48,3.48,0,0,1,476.8,197.2Z" transform="translate(-96.9 -114.25)"/><path class="cls-2" d="M753.6,191.6a3.54,3.54,0,0,0-4.4,2.1,3.46,3.46,0,0,0,.5,3,34.71,34.71,0,0,1,5.9-3.4A3.43,3.43,0,0,0,753.6,191.6Z" transform="translate(-96.9 -114.25)"/><path class="cls-2" d="M814.5,188.6a3.86,3.86,0,0,0-.9-5.6l-.2,6.8A12,12,0,0,0,814.5,188.6Z" transform="translate(-96.9 -114.25)"/><path class="cls-2" d="M741.2,187.6a3.54,3.54,0,0,0-4.4,2.1,3.49,3.49,0,0,0,2,4.4,3.54,3.54,0,0,0,4.4-2.1A3.33,3.33,0,0,0,741.2,187.6Z" transform="translate(-96.9 -114.25)"/><path class="cls-2" d="M826.1,182.8a3.36,3.36,0,0,0,4.4-2,3.35,3.35,0,1,0-4.4,2Z" transform="translate(-96.9 -114.25)"/><path class="cls-2" d="M820.4,208.1A3.28,3.28,0,0,0,816,210a3.4,3.4,0,0,0,1.9,4.4,3.39,3.39,0,1,0,2.5-6.3Z" transform="translate(-96.9 -114.25)"/><path class="cls-2" d="M828.1,199a3.36,3.36,0,0,0-4.4,2,3.22,3.22,0,0,0,2,4.3,3.36,3.36,0,0,0,4.4-2A3.3,3.3,0,0,0,828.1,199Z" transform="translate(-96.9 -114.25)"/><path class="cls-2" d="M815.6,180.9a8.35,8.35,0,0,1,.1,10.9,9.58,9.58,0,0,1-2.5,2l-.3,8.6a10.89,10.89,0,0,0,2.3-1.4,17.43,17.43,0,0,0,4.5-5.3,15.14,15.14,0,0,0,.6-13.6,9.46,9.46,0,0,0-6.6-5.2l-.1,2.9A3.09,3.09,0,0,1,815.6,180.9Z" transform="translate(-96.9 -114.25)"/><path class="cls-2" d="M831.8,186.7a3.59,3.59,0,0,0-4.4,2.1,3.4,3.4,0,1,0,6.4,2.3A3.49,3.49,0,0,0,831.8,186.7Z" transform="translate(-96.9 -114.25)"/><path class="cls-1" d="M751.5,198.1a3.59,3.59,0,0,0,4.4-2.1,3.1,3.1,0,0,0-.2-2.5,29.09,29.09,0,0,0-5.9,3.4A4.34,4.34,0,0,0,751.5,198.1Z" transform="translate(-96.9 -114.25)"/><path class="cls-1" d="M809.9,212.6a3.38,3.38,0,1,0,2.1,4.3A3.31,3.31,0,0,0,809.9,212.6Z" transform="translate(-96.9 -114.25)"/><path class="cls-1" d="M786.8,208.3a3.36,3.36,0,0,0-4.4,2,3.33,3.33,0,0,0,2,4.4,3.44,3.44,0,0,0,4.4-2A3.53,3.53,0,0,0,786.8,208.3Z" transform="translate(-96.9 -114.25)"/><path class="cls-1" d="M798.7,212.7a3.45,3.45,0,1,0-2.6,6.4,3.43,3.43,0,0,0,4.4-1.9A3.38,3.38,0,0,0,798.7,212.7Z" transform="translate(-96.9 -114.25)"/><path class="cls-1" d="M776,201.8a3.44,3.44,0,0,0-2.5,6.4,3.36,3.36,0,0,0,4.4-2A3.43,3.43,0,0,0,776,201.8Z" transform="translate(-96.9 -114.25)"/><path class="cls-1" d="M765.5,196.6a3.42,3.42,0,1,0-2.4,6.4,3.42,3.42,0,1,0,2.4-6.4Z" transform="translate(-96.9 -114.25)"/><path class="cls-3" d="M832.3,185.6c-1.9-.8-2.2-1.5-1.1-3.3a4.67,4.67,0,0,0,0-5.3,4.92,4.92,0,0,0-4.9-2,3.24,3.24,0,0,1-2.3-.8,19.29,19.29,0,0,0-9.8-3.4,15.76,15.76,0,0,0-9.6,2.9,12,12,0,0,0,.1,19.7,8.44,8.44,0,0,0,8.8.3,9.58,9.58,0,0,0,2.5-2,8.47,8.47,0,0,0-.1-10.9,5,5,0,0,0-1.9-1.3,5.78,5.78,0,0,0-7.5,3.1,3.93,3.93,0,0,0,3.6,5.4,3.65,3.65,0,0,0,2.6-1.6c.5-.7-2.8-1-2.7-2.5.2-2.2,3.2-2,4.4-.8a4.21,4.21,0,0,1,.4,5.3,5.84,5.84,0,0,1-7,1.8,6.53,6.53,0,0,1-3.8-8,7.86,7.86,0,0,1,6.9-5.8,9.61,9.61,0,0,1,3.4.3,9.46,9.46,0,0,1,6.6,5.2,15.14,15.14,0,0,1-.6,13.6,20.78,20.78,0,0,1-4.5,5.3,7.89,7.89,0,0,1-2.3,1.4,9.69,9.69,0,0,1-7.5.3c-6.1-1.9-11.2-5.7-16.5-9.1-1.4-1-2.9-1.9-4.3-2.9l-8.6-1.5c-4.6-2.8-8-3.8-14.1-3.8-4.4,0-6,1.8-6.3,8.1a3.1,3.1,0,0,1,.2,2.5,3.5,3.5,0,0,1-4.4,2.1,3.15,3.15,0,0,1-1.7-1.3,8.74,8.74,0,0,0-1,.8,4.71,4.71,0,0,0,6.5,1.1c2-1.4,2-1.4,4.4-.1v1.4a4.64,4.64,0,0,0,7.4,3.7c1.7-1.1,2.8-.6,3,1.3.3,3.9,3.6,5.8,7.1,4a2.6,2.6,0,0,1,3.7,2.2,4.68,4.68,0,0,0,7.6,3.9,2.86,2.86,0,0,1,4.3,1.5,4.67,4.67,0,0,0,3.8,3.9c2,.4,3.7-.6,4.9-2.6.8-1.3,2.2-1.4,3-.1,1.5,2.2,3.3,3.1,5.4,2.6a3.83,3.83,0,0,0,2.4-1.6,6.28,6.28,0,0,0,1.1-3c.1-.7.8-1.3,1.3-2.1.7.5,1,.8,1.3,1a4.56,4.56,0,0,0,5.9.2,5.07,5.07,0,0,0,1.5-5.6,2.58,2.58,0,0,1,.3-2.1,2.89,2.89,0,0,1,2.1-.5,4.68,4.68,0,0,0,4.5-7.7,2.64,2.64,0,0,1,1.4-4.5,4.8,4.8,0,0,0,3.6-4.4A6.44,6.44,0,0,0,832.3,185.6Zm-64.8,15.5a3.4,3.4,0,0,1-4.4,2,3.42,3.42,0,1,1,2.4-6.4A3.36,3.36,0,0,1,767.5,201.1Zm10.4,5.2a3.48,3.48,0,0,1-4.4,2,3.35,3.35,0,0,1-1.9-4.4,3.48,3.48,0,0,1,4.4-2A3.36,3.36,0,0,1,777.9,206.3Zm10.9,6.4a3.62,3.62,0,0,1-4.4,2,3.58,3.58,0,0,1-2-4.4,3.4,3.4,0,0,1,4.4-2A3.53,3.53,0,0,1,788.8,212.7Zm11.7,4.5a3.35,3.35,0,0,1-4.4,1.9,3.45,3.45,0,1,1,2.6-6.4A3.38,3.38,0,0,1,800.5,217.2Zm11.6-.3a3.39,3.39,0,0,1-4.3,2.1,3.38,3.38,0,0,1,2.2-6.4A3.47,3.47,0,0,1,812.1,216.9Zm10.2-4.4a3.35,3.35,0,0,1-4.4,1.9,3.39,3.39,0,1,1,2.5-6.3A3.32,3.32,0,0,1,822.3,212.5Zm1.8-34.1a3.35,3.35,0,1,1,6.3,2.3,3.36,3.36,0,0,1-4.4,2A3.29,3.29,0,0,1,824.1,178.4Zm6,25a3.33,3.33,0,0,1-4.4,2,3.26,3.26,0,0,1-2-4.3,3.36,3.36,0,0,1,4.4-2A3.23,3.23,0,0,1,830.1,203.4Zm3.7-12.3a3.5,3.5,0,0,1-4.4,2.1,3.53,3.53,0,0,1-2-4.4,3.59,3.59,0,0,1,4.4-2.1A3.49,3.49,0,0,1,833.8,191.1Z" transform="translate(-96.9 -114.25)"/><path class="cls-1" d="M726.3,195.6a9.19,9.19,0,0,0,3.3-1.1H667.4a4.81,4.81,0,0,1,.4,2.9,3.5,3.5,0,0,1-4.1,2.6,3.46,3.46,0,0,1-2.5-4.2,2,2,0,0,1,.4-.8s-2.1-.5-2.1,0c0,6,5.3,7.6,8.3,5,1.6-1.3,2.7-1,3.1.9.8,3.8,4.3,5.3,7.6,3.1a2.58,2.58,0,0,1,3.9,1.7,4.52,4.52,0,0,0,3.1,4.1,4.57,4.57,0,0,0,5-1.2,2.89,2.89,0,0,1,4.5,1,4.82,4.82,0,0,0,4.3,3.4c2,.1,3.6-1,4.6-3.2a1.69,1.69,0,0,1,3-.5c1.7,2,3.6,2.7,5.6,1.9s2.9-2.4,3-5c0-.7,0-2.4,1-2.3.7.4,1.1.7,1.4.9a4.53,4.53,0,0,0,5.9-.5,4.93,4.93,0,0,0,.7-5.8,2.56,2.56,0,0,1,0-2.1C724.7,195.9,725.6,195.6,726.3,195.6Zm-47.6,5.6a3.41,3.41,0,0,1-4.1,2.5,3.54,3.54,0,0,1-2.5-4.2,3.41,3.41,0,0,1,4.1-2.5A3.48,3.48,0,0,1,678.7,201.2Zm11.6,5.1a3.46,3.46,0,0,1-6.7-1.7,3.36,3.36,0,0,1,4.1-2.5A3.49,3.49,0,0,1,690.3,206.3Zm12.3,2.9a3.33,3.33,0,0,1-4.1,2.5,3.45,3.45,0,0,1-2.4-4.2,3.6,3.6,0,0,1,4.2-2.5A3.51,3.51,0,0,1,702.6,209.2Zm11.4-1.7a3.45,3.45,0,0,1-4.1,2.6,3.37,3.37,0,0,1,1.4-6.6A3.47,3.47,0,0,1,714,207.5Zm9.6-5.7a3.49,3.49,0,0,1-4.1,2.5,3.6,3.6,0,0,1-2.5-4.2,3.4,3.4,0,0,1,4.2-2.4A3.26,3.26,0,0,1,723.6,201.8Z" transform="translate(-96.9 -114.25)"/></svg>