<svg id="Layer_1" data-name="Layer 1" xmlns="http://www.w3.org/2000/svg" viewBox="0 0 316.2 324.9"><defs><style>.cls-1{fill:#fde5c0;}</style></defs><title>logo-C</title><path class="cls-1" d="M265.64,136.58a15.25,15.25,0,0,0,1.06-30c0-.07.1,0,.09-.1a7.64,7.64,0,0,1-3.94-4.08,7.27,7.27,0,0,1,1.55-7.73h0a15.26,15.26,0,0,0-11.31-27.83v-.08a8,8,0,0,1-7.5-2.31,7.38,7.38,0,0,1-.75-9.56s.14,0,.1-.08a15.26,15.26,0,0,0-21.49-21h0a7.24,7.24,0,0,1-5.41-.14c-2.63-1.13-4.93-3.75-5.07-6.43-.1-.06.16-.37.06-.43a15.25,15.25,0,0,0-28-10.72,8.41,8.41,0,0,1-5,1.57,8.27,8.27,0,0,1-7-4.43c-.09,0,0,.06-.06.05a15.26,15.26,0,0,0-30.29.23,107.92,107.92,0,0,0-53,23A15.25,15.25,0,0,0,72.52,58.38a9.44,9.44,0,0,1-.75,3.54c-1.35,3.16-4.81,5.39-8.06,4.83-.06.11-.17-.2-.23-.09A15.25,15.25,0,0,0,53.15,95.14,7.23,7.23,0,0,1,54.8,99.8,7.65,7.65,0,0,1,50,107c0,.15-.08.06-.1.21a15.25,15.25,0,0,0,.56,30.2,7.89,7.89,0,0,1,3.56,4,7.27,7.27,0,0,1-1.54,7.81v.13a15.24,15.24,0,0,0,11.64,27.78v.08a8.45,8.45,0,0,1,4.75,2.43A7.65,7.65,0,0,1,70.66,187l.08.1a15.26,15.26,0,0,0,21.6,21.32h0a7.51,7.51,0,0,1,5.19.26,7.25,7.25,0,0,1,4.38,5.86,15.26,15.26,0,0,0,28,12.07c.15,0-.26.16-.11.2a8.66,8.66,0,0,1,5.87-2.34,7.25,7.25,0,0,1,6.61,4.38,15.25,15.25,0,0,0,30.33.69c.17,0-.11-.08.06-.1a9.27,9.27,0,0,1,4.44-3.59,7.8,7.8,0,0,1,7.31,1,15.25,15.25,0,0,0,28.28-11c.14-.08-.06-.11.08-.19a8.41,8.41,0,0,1,2.7-5.44,7.26,7.26,0,0,1,7-1.85,15.25,15.25,0,0,0,22.35-20.44c.08-.1,0,.09,0,0a7.75,7.75,0,0,1-.87-7.67,7.27,7.27,0,0,1,6.89-4.48,15.25,15.25,0,0,0,13.36-27.31c0-.1.1.07.13,0A7.92,7.92,0,0,1,262,142.9,7.25,7.25,0,0,1,265.64,136.58ZM198,13.25a10.5,10.5,0,1,1-10.5,10.5h0A10.5,10.5,0,0,1,198,13.25Zm-68,38a10.5,10.5,0,1,1,10.5-10.5A10.5,10.5,0,0,1,130,51.25ZM157.7,4.5A10.5,10.5,0,1,1,147.2,15h0A10.5,10.5,0,0,1,157.7,4.5Zm-42.79,34a14,14,0,0,0,0,4.76,83.15,83.15,0,0,0-14.41,3.3,15.19,15.19,0,0,0-2-4.06,135.6,135.6,0,0,1,14-3.71q1.25-.21,2.51-.32Zm-29,2A10.5,10.5,0,1,1,75.41,51a10.5,10.5,0,0,1,10.5-10.5h0Zm-26,30.25a10.5,10.5,0,1,1-10.5,10.5,10.5,10.5,0,0,1,10.5-10.5h0ZM41.7,122a10.5,10.5,0,1,1,10.5,10.5h0A10.5,10.5,0,0,1,41.7,122ZM50,162a10.5,10.5,0,1,1,10.5,10.5A10.5,10.5,0,0,1,50,162ZM82.7,206.75a10.5,10.5,0,1,1,10.5-10.5h0A10.5,10.5,0,0,1,82.7,206.75Zm33.75,22.75A10.5,10.5,0,1,1,127,219h0a10.5,10.5,0,0,1-10.46,10.5Zm41,8.25a10.5,10.5,0,1,1,10.5-10.5,10.5,10.5,0,0,1-10.5,10.5ZM198,230a10.5,10.5,0,1,1,10.5-10.5A10.5,10.5,0,0,1,198,230Zm-39.74-52.85a55.83,55.83,0,0,1-55.78-61.75l.12.16a1,1,0,0,1-.11-.21,55.32,55.32,0,0,1,1-6.08A103.45,103.45,0,0,1,110,94.2a40.07,40.07,0,0,1,10-11.07,35.78,35.78,0,0,1,22.88-6.55c12.18.48,20.1,11.19,31.66,13.84,3.34.76,7.45-1.87,8.25-5.49s-4.09-11-6-13.56a78.59,78.59,0,0,0-16-16.9,56.88,56.88,0,0,0-16.32-8.71,15.23,15.23,0,0,0,.76-4.71,57.43,57.43,0,0,1,27.81,18.27A71.11,71.11,0,0,1,180.36,70a55.78,55.78,0,0,1-22.11,107.13ZM274,121.25a10.5,10.5,0,1,1-10.5-10.5,10.5,10.5,0,0,1,10.5,10.5v0ZM266.7,81.5A10.5,10.5,0,1,1,256.2,71h0A10.5,10.5,0,0,1,266.7,81.5ZM242.7,46a10.5,10.5,0,1,1-10.5-10.5h0A10.5,10.5,0,0,1,242.7,46ZM232.45,207A10.5,10.5,0,1,1,243,196.5h0A10.5,10.5,0,0,1,232.49,207Zm24-35.25a10.5,10.5,0,1,1,10.5-10.5h0a10.5,10.5,0,0,1-10.46,10.5Z" transform="translate(0.5 0)"/><circle class="cls-1" cx="130.49" cy="40.88" r="4.25"/><circle class="cls-1" cx="86.49" cy="51.13" r="4.25"/><circle class="cls-1" cx="60.49" cy="81.38" r="4.25"/><circle class="cls-1" cx="52.74" cy="122.13" r="4.25"/><circle class="cls-1" cx="60.99" cy="162.13" r="4.25"/><circle class="cls-1" cx="83.24" cy="196.38" r="4.25"/><circle class="cls-1" cx="116.99" cy="219.13" r="4.25"/><circle class="cls-1" cx="157.99" cy="227.38" r="4.25"/><circle class="cls-1" cx="198.49" cy="219.63" r="4.25"/><circle class="cls-1" cx="232.99" cy="196.63" r="4.25"/><circle class="cls-1" cx="256.99" cy="161.38" r="4.25"/><circle class="cls-1" cx="263.99" cy="121.38" r="4.25"/><circle class="cls-1" cx="256.74" cy="81.63" r="4.25"/><circle class="cls-1" cx="232.74" cy="46.13" r="4.25"/><circle class="cls-1" cx="198.49" cy="23.88" r="4.25"/><circle class="cls-1" cx="158.24" cy="15.13" r="4.25"/><path class="cls-1" d="M20.27,263.92a20.52,20.52,0,1,0,20.27,20.77q0-.12,0-.25A20.4,20.4,0,0,0,20.27,263.92Zm0,35.53c-8,0-14.52-6.84-14.52-15.27s6.5-15.27,14.52-15.27,14.52,6.84,14.52,15.27S28.29,299.45,20.27,299.45Z" transform="translate(0.5 0)"/><path class="cls-1" d="M122.77,263.92A20.52,20.52,0,1,0,143,284.69q0-.12,0-.25A20.4,20.4,0,0,0,122.77,263.92Zm0,35.53c-8,0-14.52-6.84-14.52-15.27s6.5-15.27,14.52-15.27,14.52,6.84,14.52,15.27S130.79,299.45,122.77,299.45Z" transform="translate(0.5 0)"/><path class="cls-1" d="M208.78,263.92A20.52,20.52,0,1,0,229,284.69q0-.12,0-.25A20.4,20.4,0,0,0,208.78,263.92Zm0,35.53c-8,0-14.52-6.84-14.52-15.27s6.5-15.27,14.52-15.27,14.52,6.84,14.52,15.27S216.8,299.45,208.78,299.45Z" transform="translate(0.5 0)"/><path class="cls-1" d="M165.86,263.92a20.12,20.12,0,0,0-15.26,7V263.8h-5.39v61.1h5.39v-27a20.12,20.12,0,0,0,15.26,7,20.52,20.52,0,0,0,0-41Zm0,35.53c-8,0-14.52-6.84-14.52-15.27s6.5-15.27,14.52-15.27,14.52,6.84,14.52,15.27S173.88,299.45,165.86,299.45Z" transform="translate(0.5 0)"/><path class="cls-1" d="M252,304.44a20.12,20.12,0,0,0,15.26-7v7.14h5.39v-61.1h-5.39v27a20.12,20.12,0,0,0-15.26-7,20.52,20.52,0,0,0,0,41Zm0-35.53c8,0,14.52,6.84,14.52,15.27S260,299.45,252,299.45s-14.52-6.87-14.52-15.27S244,268.91,252,268.91Z" transform="translate(0.5 0)"/><path class="cls-1" d="M310.35,263.65v7.1a20.12,20.12,0,0,0-15.26-7,20.52,20.52,0,0,0,0,41,20.12,20.12,0,0,0,15.26-7v7.12h5.35V263.65Zm-15.26,36.14c-8,0-14.52-6.84-14.52-15.27s6.5-15.27,14.52-15.27,14.52,6.84,14.52,15.27-6.5,15.27-14.52,15.27Z" transform="translate(0.5 0)"/><path class="cls-1" d="M65.78,299.1a13.87,13.87,0,0,1-3.09.35c-8,0-14.52-6.84-14.52-15.27s6.53-15.27,14.53-15.27a13.87,13.87,0,0,1,3.09.35v-5.1a20.19,20.19,0,0,0-3.09-.24,20.52,20.52,0,0,0,0,41,20.19,20.19,0,0,0,3.09-.24Z" transform="translate(0.5 0)"/><path class="cls-1" d="M100.87,291.83a14.39,14.39,0,0,1-12.56,7.62c-7.75,0-14.08-6.39-14.49-14.43v-5.47H90.54v-5.39H73.85V263.82h-5.8V285A20.39,20.39,0,0,0,88.31,305a20.12,20.12,0,0,0,15.61-7.43Z" transform="translate(0.5 0)"/></svg>