<svg id="Layer_1" data-name="Layer 1" xmlns="http://www.w3.org/2000/svg" viewBox="0 0 315.74 324.91"><defs><style>.cls-1{fill:#02344a;}</style></defs><title>octopoda logo FINAL</title><path class="cls-1" d="M521.94,279A15.25,15.25,0,0,0,523,249c0-.07.1,0,.09-.1a7.64,7.64,0,0,1-3.94-4.08,7.27,7.27,0,0,1,1.55-7.73v0a15.26,15.26,0,0,0-11.31-27.83l0-.08a8,8,0,0,1-7.5-2.31,7.38,7.38,0,0,1-.75-9.56s.14,0,.1-.08a15.26,15.26,0,0,0-21.49-21h0a7.24,7.24,0,0,1-5.41-.14c-2.63-1.13-4.93-3.75-5.07-6.43-.1-.06.16-.37.06-.43a15.25,15.25,0,0,0-28-10.72,8.41,8.41,0,0,1-5,1.57,8.27,8.27,0,0,1-7-4.43c-.09,0,0,.06-.06.05a15.26,15.26,0,0,0-30.29.23A107.92,107.92,0,0,0,346,178.89a15.25,15.25,0,0,0-17.18,21.91,9.44,9.44,0,0,1-.75,3.54c-1.35,3.16-4.81,5.39-8.06,4.83-.06.11-.17-.2-.23-.09a15.25,15.25,0,0,0-10.33,28.48,7.23,7.23,0,0,1,1.65,4.66,7.65,7.65,0,0,1-4.84,7.21c0,.15-.08.06-.1.21a15.25,15.25,0,0,0,.56,30.2,7.89,7.89,0,0,1,3.56,4,7.27,7.27,0,0,1-1.54,7.81l0,.13a15.24,15.24,0,0,0,11.64,27.78l0,.08a8.45,8.45,0,0,1,4.75,2.43,7.65,7.65,0,0,1,1.83,7.32l.08.1a15.26,15.26,0,0,0,21.6,21.32s0,0,0,0a7.51,7.51,0,0,1,5.19.26,7.25,7.25,0,0,1,4.38,5.86A15.26,15.26,0,0,0,386.21,369c.15,0-.26.16-.11.2a8.66,8.66,0,0,1,5.87-2.34,7.25,7.25,0,0,1,6.61,4.38,15.25,15.25,0,0,0,30.33.69c.17,0-.11-.08.06-.1a9.27,9.27,0,0,1,4.44-3.59,7.8,7.8,0,0,1,7.31,1A15.25,15.25,0,0,0,469,358.24c.14-.08-.06-.11.08-.19,0-1.9,1.24-4,2.7-5.44a7.26,7.26,0,0,1,7-1.85,15.25,15.25,0,0,0,22.35-20.44c.08-.1,0,.09,0,0a7.75,7.75,0,0,1-.87-7.67,7.27,7.27,0,0,1,6.89-4.48,15.25,15.25,0,0,0,13.36-27.31c0-.1.1.07.13,0a7.92,7.92,0,0,1-2.31-5.54A7.25,7.25,0,0,1,521.94,279ZM454.29,155.67a10.5,10.5,0,1,1-10.5,10.5A10.5,10.5,0,0,1,454.29,155.67Zm-68,38a10.5,10.5,0,1,1,10.5-10.5A10.5,10.5,0,0,1,386.29,193.67ZM414,146.92a10.5,10.5,0,1,1-10.5,10.5A10.5,10.5,0,0,1,414,146.92Zm-42.79,34a14.05,14.05,0,0,0-.05,4.76,83.15,83.15,0,0,0-14.41,3.3,15.19,15.19,0,0,0-2-4.06,135.6,135.6,0,0,1,14-3.71Q370,181,371.26,180.89Zm-29,2a10.5,10.5,0,1,1-10.5,10.5A10.5,10.5,0,0,1,342.29,182.92Zm-26,30.25a10.5,10.5,0,1,1-10.5,10.5A10.5,10.5,0,0,1,316.29,213.17ZM298,264.42a10.5,10.5,0,1,1,10.5,10.5A10.5,10.5,0,0,1,298,264.42Zm8.25,40a10.5,10.5,0,1,1,10.5,10.5A10.5,10.5,0,0,1,306.29,304.42ZM339,349.17a10.5,10.5,0,1,1,10.5-10.5A10.5,10.5,0,0,1,339,349.17Zm33.75,22.75a10.5,10.5,0,1,1,10.5-10.5A10.5,10.5,0,0,1,372.79,371.92Zm41,8.25a10.5,10.5,0,1,1,10.5-10.5A10.5,10.5,0,0,1,413.79,380.17Zm40.5-7.75a10.5,10.5,0,1,1,10.5-10.5A10.5,10.5,0,0,1,454.29,372.42Zm-39.74-52.85a55.83,55.83,0,0,1-55.78-61.75l.12.16a1,1,0,0,1-.11-.21,55.32,55.32,0,0,1,1-6.08,103.45,103.45,0,0,1,6.53-15.07,40.07,40.07,0,0,1,10-11.07A35.78,35.78,0,0,1,399.15,219c12.18.48,20.1,11.19,31.66,13.84,3.34.76,7.45-1.87,8.25-5.49s-4.09-11-5.95-13.56a78.59,78.59,0,0,0-16-16.9,56.88,56.88,0,0,0-16.32-8.71,15.23,15.23,0,0,0,.76-4.71,57.43,57.43,0,0,1,27.81,18.27,71.11,71.11,0,0,1,7.3,10.69,55.78,55.78,0,0,1-22.11,107.13Zm115.74-55.9a10.5,10.5,0,1,1-10.5-10.5A10.5,10.5,0,0,1,530.29,263.67ZM523,223.92a10.5,10.5,0,1,1-10.5-10.5A10.5,10.5,0,0,1,523,223.92Zm-24-35.5a10.5,10.5,0,1,1-10.5-10.5A10.5,10.5,0,0,1,499,188.42Zm-10.25,161a10.5,10.5,0,1,1,10.5-10.5A10.5,10.5,0,0,1,488.79,349.42Zm24-35.25a10.5,10.5,0,1,1,10.5-10.5A10.5,10.5,0,0,1,512.79,314.17Z" transform="translate(-256.3 -142.42)"/><circle class="cls-1" cx="129.99" cy="40.88" r="4.25"/><circle class="cls-1" cx="85.99" cy="51.13" r="4.25"/><circle class="cls-1" cx="59.99" cy="81.38" r="4.25"/><circle class="cls-1" cx="52.24" cy="122.13" r="4.25"/><circle class="cls-1" cx="60.49" cy="162.13" r="4.25"/><circle class="cls-1" cx="82.74" cy="196.38" r="4.25"/><circle class="cls-1" cx="116.49" cy="219.13" r="4.25"/><circle class="cls-1" cx="157.49" cy="227.38" r="4.25"/><circle class="cls-1" cx="197.99" cy="219.63" r="4.25"/><circle class="cls-1" cx="232.49" cy="196.63" r="4.25"/><circle class="cls-1" cx="256.49" cy="161.38" r="4.25"/><circle class="cls-1" cx="263.49" cy="121.38" r="4.25"/><circle class="cls-1" cx="256.24" cy="81.63" r="4.25"/><circle class="cls-1" cx="232.24" cy="46.13" r="4.25"/><circle class="cls-1" cx="197.99" cy="23.88" r="4.25"/><circle class="cls-1" cx="157.74" cy="15.13" r="4.25"/><path class="cls-1" d="M276.57,406.34a20.52,20.52,0,1,0,20.27,20.52A20.4,20.4,0,0,0,276.57,406.34Zm0,35.53c-8,0-14.52-6.84-14.52-15.27s6.5-15.27,14.52-15.27,14.52,6.84,14.52,15.27S284.59,441.87,276.57,441.87Z" transform="translate(-256.3 -142.42)"/><path class="cls-1" d="M379.07,406.34a20.52,20.52,0,1,0,20.27,20.52A20.4,20.4,0,0,0,379.07,406.34Zm0,35.53c-8,0-14.52-6.84-14.52-15.27s6.5-15.27,14.52-15.27,14.52,6.84,14.52,15.27S387.09,441.87,379.07,441.87Z" transform="translate(-256.3 -142.42)"/><path class="cls-1" d="M465.08,406.34a20.52,20.52,0,1,0,20.27,20.52A20.4,20.4,0,0,0,465.08,406.34Zm0,35.53c-8,0-14.52-6.84-14.52-15.27s6.5-15.27,14.52-15.27,14.52,6.84,14.52,15.27S473.1,441.87,465.08,441.87Z" transform="translate(-256.3 -142.42)"/><path class="cls-1" d="M422.16,406.34a20.12,20.12,0,0,0-15.26,7v-7.12h-5.39v61.1h5.39v-27a20.12,20.12,0,0,0,15.26,7,20.52,20.52,0,0,0,0-41Zm0,35.53c-8,0-14.52-6.84-14.52-15.27s6.5-15.27,14.52-15.27,14.52,6.84,14.52,15.27S430.18,441.87,422.16,441.87Z" transform="translate(-256.3 -142.42)"/><path class="cls-1" d="M508.31,446.86a20.12,20.12,0,0,0,15.26-7V447h5.39v-61.1h-5.39v27a20.12,20.12,0,0,0-15.26-7,20.52,20.52,0,0,0,0,41Zm0-35.53c8,0,14.52,6.84,14.52,15.27s-6.5,15.27-14.52,15.27S493.79,435,493.79,426.6,500.29,411.33,508.31,411.33Z" transform="translate(-256.3 -142.42)"/><path class="cls-1" d="M566.65,406.07v7.1a20.12,20.12,0,0,0-15.26-7,20.52,20.52,0,0,0,0,41,20.12,20.12,0,0,0,15.26-7v7.12H572V406.07Zm-15.26,36.14c-8,0-14.52-6.84-14.52-15.27s6.5-15.27,14.52-15.27,14.52,6.84,14.52,15.27S559.41,442.21,551.39,442.21Z" transform="translate(-256.3 -142.42)"/><path class="cls-1" d="M322.08,441.52a13.87,13.87,0,0,1-3.09.35c-8,0-14.52-6.84-14.52-15.27S311,411.33,319,411.33a13.87,13.87,0,0,1,3.09.35v-5.1a20.19,20.19,0,0,0-3.09-.24,20.52,20.52,0,0,0,0,41,20.19,20.19,0,0,0,3.09-.24Z" transform="translate(-256.3 -142.42)"/><path class="cls-1" d="M357.17,434.25a14.39,14.39,0,0,1-12.56,7.62c-7.75,0-14.08-6.39-14.49-14.43l0-5.47h16.72v-5.39H330.15V406.24h-5.8v21.21a20.39,20.39,0,0,0,20.26,19.94,20.12,20.12,0,0,0,15.61-7.43Z" transform="translate(-256.3 -142.42)"/></svg>