<svg id="Layer_1" data-name="Layer 1" xmlns="http://www.w3.org/2000/svg" viewBox="0 0 273.6 153.93"><defs><style>.cls-1{fill:#989898;}</style></defs><title>tentacle FINAL-l</title><path class="cls-1" d="M214.07,324.49c1.59-3.08,4.73-3.28,6.87-.43,3.27,4.38,7.44,6.21,11.9,4.84,4.72-1.45,7.27-4.81,7.85-9.76.48-4.07,5.83-6.61,9.44-4.48,3.95,2.33,7.93,2.47,11.71,0s5.24-6.18,4.72-10.72c-.46-4,4.12-7.3,7.93-5.85,8.41,3.2,15.61-1.89,15.37-10.85-.12-4.41,2.34-5.8,6.5-3.66,8,4.11,16.41-1.23,16-10.18-.15-3.34,1.19-6.16,5.47-5.91,4.8.28,7.25,4.29,12.65,2.81,3.93-1.08,7.23-4.31,7.27-8.56,0-3.32,2.36-8,6.59-6.94a5.47,5.47,0,0,1,1.43.66c3.05,1.77,5.79,4,9.49,3.69a11.47,11.47,0,0,0,4.3-1.29c1.73-.86,5.73-4.19,3.52-3.31,13.84-1.2,34.33,22.5,47.87,27V177.81a156.62,156.62,0,0,0-30.8,2.88c-27.84,4.72-52.1,17.64-74.17,34.37-21.23,16.09-41.37,33.64-62,50.57-14.29,11.75-35.9,34.38-56.17,24-15.5-7.92-23.62-26.51-18.29-43.08,2.83-8.8,11.59-14.57,21.38-14.79a18.26,18.26,0,0,1,17,11.66c3,7.26-.12,14.51-6.9,19.27-7.33,5.15-21.94-.84-17.85-13.42.72-2.23,3.54-3.49,5.86-3.8,2.57-.34,5.54,1.28,5.25,4.24-.18,1.84-1.67,2.25-3.21,2.5-1.06.17-3.06.33-2.8,1.87a4.27,4.27,0,0,0,1.73,2.57,8.1,8.1,0,0,0,9.89-.45,9.58,9.58,0,0,0,2.71-9.77,11.77,11.77,0,0,0-7.16-7.46c-5.32-2-11.88-.68-15.31,4-6.76,9.27-3,21.56,6.37,27.42,11.11,7,23.6.8,29.05-10.28,6.43-13.07.76-28.74-11.48-36-13.64-8.07-31.15-5.84-44.26,5.47a9,9,0,0,1-5.18,2.35c-4.71,0-8.42,1.47-10.78,5.62s-1.45,8.27,1.21,12.06c2.78,4,2.43,5.5-1.82,7.84a10.76,10.76,0,0,0,3.35,20.26c5.11.88,7.13,5.71,4.21,10a10.7,10.7,0,0,0,.22,12.9c2.57,3.58,7.31,4.78,12,3.52,1.49-.4,3.77-.2,4.81.72s1.36,3.17,1.05,4.63c-1.07,5,.63,10.05,4.67,12.53,4.36,2.67,9.35,1.75,13.48-1.94,2.23-2,4.82-2.25,6.06,2,1.43,4.87,3.6,8.72,9.32,9.52C207.35,332.31,211.26,329.91,214.07,324.49Zm-67.81-78.36a7.77,7.77,0,0,1,14-6.8,7.77,7.77,0,1,1-14,6.8Zm-5.15,24.42A7.91,7.91,0,0,1,144.62,260a8,8,0,0,1,7,14.34A7.92,7.92,0,0,1,141.11,270.55Zm95.81,44.36a8,8,0,0,1-3.25,10.66,7.91,7.91,0,0,1-7.36-14A8,8,0,0,1,236.92,314.91Zm114.65-74.12A7.94,7.94,0,1,1,348,251.34,7.91,7.91,0,0,1,351.57,240.79Zm-31.44,22.48a8,8,0,0,1,4.13-10.37,7.9,7.9,0,0,1,10.44,3.84,8.07,8.07,0,0,1-4.09,10.39A8.15,8.15,0,0,1,320.13,263.28Zm-25.41,14.51a8.09,8.09,0,0,1,3.48-10.63,8.25,8.25,0,0,1,10.61,3.62,8.13,8.13,0,0,1-3.53,10.61A8,8,0,0,1,294.72,277.79ZM272.25,292a7.79,7.79,0,1,1,10.53,3.43A7.82,7.82,0,0,1,272.25,292Zm-119.76,5.54a7.78,7.78,0,1,1,14-6.87,7.78,7.78,0,0,1-14,6.87Zm99.95,1.11a7.83,7.83,0,0,1,10.54,3.5,8,8,0,0,1-3.42,10.6A8.16,8.16,0,0,1,249,309.27,8,8,0,0,1,252.44,298.68Zm-69.62,21.24a7.78,7.78,0,0,1-10.55-3.33,7.66,7.66,0,0,1,3.3-10.52,7.83,7.83,0,0,1,10.59,3.25A8,8,0,0,1,182.82,319.92Zm13.95,4.45A7.82,7.82,0,0,1,200.61,314a7.79,7.79,0,1,1,6.57,14.13A7.85,7.85,0,0,1,196.77,324.37Z" transform="translate(-137.35 -177.81)"/><circle class="cls-1" cx="190.26" cy="82.51" r="3"/><circle class="cls-1" cx="217.93" cy="70.18" r="3"/><circle class="cls-1" cx="164.6" cy="96.51" r="3"/><circle class="cls-1" cx="141.93" cy="110.51" r="3"/><circle class="cls-1" cx="118.6" cy="127.51" r="3"/><circle class="cls-1" cx="92.26" cy="140.51" r="3"/><circle class="cls-1" cx="66.6" cy="143.18" r="3"/><circle class="cls-1" cx="15.93" cy="65.18" r="3"/><circle class="cls-1" cx="10.84" cy="89.19" r="3"/><circle class="cls-1" cx="21.85" cy="116.21" r="3"/><circle class="cls-1" cx="41.86" cy="135.22" r="3"/></svg>