<svg id="Layer_1" data-name="Layer 1" xmlns="http://www.w3.org/2000/svg" viewBox="0 0 153.91 273.64"><defs><style>.cls-1{fill:#989898;}</style></defs><title>tentacle-l-up</title><path class="cls-1" d="M67,16.89c3.08,1.59,3.28,4.73.43,6.87C63.1,27,61.27,31.2,62.64,35.66c1.45,4.72,4.81,7.27,9.76,7.85C76.47,44,79,49.34,76.88,53c-2.33,3.95-2.47,7.93,0,11.71s6.18,5.24,10.72,4.72c4-.46,7.3,4.12,5.85,7.93-3.2,8.41,1.89,15.61,10.85,15.37,4.41-.12,5.8,2.34,3.66,6.5-4.11,8,1.23,16.41,10.18,16,3.34-.15,6.16,1.19,5.91,5.47-.28,4.8-4.29,7.25-2.81,12.65,1.08,3.93,4.31,7.23,8.56,7.27,3.32,0,8,2.36,6.94,6.59a5.47,5.47,0,0,1-.66,1.43c-1.77,3-4,5.79-3.69,9.49a11.47,11.47,0,0,0,1.29,4.3c.86,1.73,4.19,5.73,3.31,3.52,1.2,13.84-22.5,34.33-27,47.87H213.73a156.62,156.62,0,0,0-2.88-30.8c-4.72-27.84-17.64-52.1-34.37-74.17-16.09-21.23-33.64-41.37-50.57-62-11.75-14.29-34.38-35.9-24-56.17C109.83-24.87,128.42-33,145-27.66c8.8,2.83,14.57,11.59,14.79,21.38a18.26,18.26,0,0,1-11.66,17c-7.26,3-14.51-.12-19.27-6.9-5.15-7.33.84-21.94,13.42-17.85,2.23.72,3.49,3.54,3.8,5.86.34,2.57-1.28,5.54-4.24,5.25-1.84-.18-2.25-1.67-2.5-3.21-.17-1.06-.33-3.06-1.87-2.8a4.27,4.27,0,0,0-2.57,1.73,8.1,8.1,0,0,0,.45,9.89,9.58,9.58,0,0,0,9.77,2.71,11.77,11.77,0,0,0,7.46-7.16c2-5.32.68-11.88-4-15.31-9.27-6.76-21.56-3-27.42,6.37-7,11.11-.8,23.6,10.28,29.05,13.07,6.43,28.74.76,36-11.48,8.07-13.64,5.84-31.15-5.47-44.26a9,9,0,0,1-2.35-5.18c0-4.71-1.47-8.42-5.62-10.78s-8.27-1.45-12.06,1.21c-4,2.78-5.5,2.43-7.84-1.82a10.76,10.76,0,0,0-14.45-4.76,10.76,10.76,0,0,0-5.81,8.11c-.88,5.11-5.71,7.13-10,4.21a10.7,10.7,0,0,0-12.9.22c-3.58,2.57-4.78,7.31-3.52,12,.4,1.49.2,3.77-.72,4.81S83.52-28,82.06-28.32c-5-1.07-10,.63-12.53,4.67-2.67,4.36-1.75,9.35,1.94,13.48,2,2.23,2.25,4.82-2,6.06-4.87,1.43-8.72,3.6-9.52,9.32C59.23,10.17,61.63,14.08,67,16.89Zm78.36-67.81a7.78,7.78,0,0,1,10.4,3.6,7.78,7.78,0,0,1-3.6,10.4,7.78,7.78,0,0,1-10.4-3.6,7.78,7.78,0,0,1,3.6-10.4ZM121-56.07a7.91,7.91,0,0,1,10.55,3.51,8,8,0,0,1-4.45,10.4,8,8,0,0,1-9.89-3.4A7.92,7.92,0,0,1,121-56.07ZM76.63,39.74A8,8,0,0,1,66,36.49a7.91,7.91,0,0,1,14-7.36,8,8,0,0,1-3.34,10.61Zm74.12,114.65a7.94,7.94,0,1,1-10.67-3.51l.12-.06a7.91,7.91,0,0,1,10.55,3.57ZM128.27,123a8,8,0,0,1,10.37,4.13,7.9,7.9,0,0,1-3.84,10.44A8,8,0,0,1,128.26,123ZM113.76,97.54A8.09,8.09,0,0,1,124.39,101a8.25,8.25,0,0,1-3.62,10.61,8.13,8.13,0,0,1-10.61-3.53,8,8,0,0,1,3.59-10.56ZM99.54,75.07A7.79,7.79,0,1,1,96.11,85.6a7.79,7.79,0,0,1,3.43-10.53ZM94-44.69a7.8,7.8,0,0,1,10.43,3.57,7.8,7.8,0,0,1-3.57,10.43h0a7.8,7.8,0,0,1-10.43-3.57A7.8,7.8,0,0,1,94-44.69ZM92.89,55.26a7.83,7.83,0,0,1-3.46,10.52l0,0a8,8,0,0,1-10.6-3.42,8.16,8.16,0,0,1,3.48-10.56,8,8,0,0,1,10.59,3.44ZM71.65-14.36A7.78,7.78,0,0,1,74.9-24.87l.08,0a7.66,7.66,0,0,1,10.39,3.06l.13.24A7.83,7.83,0,0,1,82.25-11h0a8,8,0,0,1-10.63-3.34ZM67.2-.41A7.82,7.82,0,1,1,63.41,10,7.82,7.82,0,0,1,67.2-.41Z" transform="translate(-59.83 59.87)"/><circle class="cls-1" cx="71.39" cy="190.3" r="3"/><circle class="cls-1" cx="83.72" cy="217.97" r="3"/><circle class="cls-1" cx="57.39" cy="164.64" r="3"/><circle class="cls-1" cx="43.39" cy="141.97" r="3"/><circle class="cls-1" cx="26.39" cy="118.64" r="3"/><circle class="cls-1" cx="13.39" cy="92.3" r="3"/><circle class="cls-1" cx="10.72" cy="66.64" r="3"/><circle class="cls-1" cx="88.72" cy="15.97" r="3"/><circle class="cls-1" cx="64.71" cy="10.88" r="3"/><circle class="cls-1" cx="37.69" cy="21.89" r="3"/><circle class="cls-1" cx="18.68" cy="41.9" r="3"/></svg>